<?xml version="1.0" encoding="UTF-8" standalone="no"?>
<!DOCTYPE svg PUBLIC "-//W3C//DTD SVG 1.1//EN"
 "http://www.w3.org/Graphics/SVG/1.1/DTD/svg11.dtd">
<!-- Generated by graphviz version 2.43.0 (0)
 -->
<!-- Title: snakemake_dag Pages: 1 -->
<svg width="282pt" height="1052pt"
 viewBox="0.00 0.00 281.50 1052.00" xmlns="http://www.w3.org/2000/svg" xmlns:xlink="http://www.w3.org/1999/xlink">
<g id="graph0" class="graph" transform="scale(1 1) rotate(0) translate(4 1048)">
<title>snakemake_dag</title>
<polygon fill="white" stroke="transparent" points="-4,4 -4,-1048 277.5,-1048 277.5,4 -4,4"/>
<!-- 0 -->
<g id="node1" class="node">
<title>0</title>
<path fill="none" stroke="#56d8a9" stroke-width="2" d="M86,-36C86,-36 56,-36 56,-36 50,-36 44,-30 44,-24 44,-24 44,-12 44,-12 44,-6 50,0 56,0 56,0 86,0 86,0 92,0 98,-6 98,-12 98,-12 98,-24 98,-24 98,-30 92,-36 86,-36"/>
<text text-anchor="middle" x="71" y="-15.5" font-family="sans" font-size="10.00">all</text>
</g>
<!-- 1 -->
<g id="node2" class="node">
<title>1</title>
<path fill="none" stroke="#d8bc56" stroke-width="2" d="M117,-108C117,-108 87,-108 87,-108 81,-108 75,-102 75,-96 75,-96 75,-84 75,-84 75,-78 81,-72 87,-72 87,-72 117,-72 117,-72 123,-72 129,-78 129,-84 129,-84 129,-96 129,-96 129,-102 123,-108 117,-108"/>
<text text-anchor="middle" x="102" y="-87.5" font-family="sans" font-size="10.00">iqtree</text>
</g>
<!-- 1&#45;&gt;0 -->
<g id="edge2" class="edge">
<title>1&#45;&gt;0</title>
<path fill="none" stroke="grey" stroke-width="2" d="M94.34,-71.7C90.81,-63.73 86.54,-54.1 82.63,-45.26"/>
<polygon fill="grey" stroke="grey" stroke-width="2" points="85.82,-43.83 78.57,-36.1 79.42,-46.67 85.82,-43.83"/>
</g>
<!-- 2 -->
<g id="node3" class="node">
<title>2</title>
<path fill="none" stroke="#5673d8" stroke-width="2" d="M42,-828C42,-828 12,-828 12,-828 6,-828 0,-822 0,-816 0,-816 0,-804 0,-804 0,-798 6,-792 12,-792 12,-792 42,-792 42,-792 48,-792 54,-798 54,-804 54,-804 54,-816 54,-816 54,-822 48,-828 42,-828"/>
<text text-anchor="middle" x="27" y="-807.5" font-family="sans" font-size="10.00">multiqc</text>
</g>
<!-- 2&#45;&gt;0 -->
<g id="edge1" class="edge">
<title>2&#45;&gt;0</title>
<path fill="none" stroke="grey" stroke-width="2" d="M29.57,-792C33.36,-765.4 40,-712.3 40,-667 40,-667 40,-667 40,-161 40,-120.1 52.43,-74.06 61.55,-45.79"/>
<polygon fill="grey" stroke="grey" stroke-width="2" points="64.89,-46.82 64.73,-36.22 58.25,-44.61 64.89,-46.82"/>
</g>
<!-- 3 -->
<g id="node4" class="node">
<title>3</title>
<path fill="none" stroke="#d86e56" stroke-width="2" d="M129.5,-180C129.5,-180 88.5,-180 88.5,-180 82.5,-180 76.5,-174 76.5,-168 76.5,-168 76.5,-156 76.5,-156 76.5,-150 82.5,-144 88.5,-144 88.5,-144 129.5,-144 129.5,-144 135.5,-144 141.5,-150 141.5,-156 141.5,-156 141.5,-168 141.5,-168 141.5,-174 135.5,-180 129.5,-180"/>
<text text-anchor="middle" x="109" y="-159.5" font-family="sans" font-size="10.00">vcftofasta</text>
</g>
<!-- 3&#45;&gt;1 -->
<g id="edge3" class="edge">
<title>3&#45;&gt;1</title>
<path fill="none" stroke="grey" stroke-width="2" d="M107.27,-143.7C106.5,-135.98 105.57,-126.71 104.71,-118.11"/>
<polygon fill="grey" stroke="grey" stroke-width="2" points="108.19,-117.71 103.71,-108.1 101.22,-118.4 108.19,-117.71"/>
</g>
<!-- 4 -->
<g id="node5" class="node">
<title>4</title>
<path fill="none" stroke="#c6d856" stroke-width="2" d="M54,-972C54,-972 24,-972 24,-972 18,-972 12,-966 12,-960 12,-960 12,-948 12,-948 12,-942 18,-936 24,-936 24,-936 54,-936 54,-936 60,-936 66,-942 66,-948 66,-948 66,-960 66,-960 66,-966 60,-972 54,-972"/>
<text text-anchor="middle" x="39" y="-951.5" font-family="sans" font-size="10.00">fastqc</text>
</g>
<!-- 4&#45;&gt;2 -->
<g id="edge4" class="edge">
<title>4&#45;&gt;2</title>
<path fill="none" stroke="grey" stroke-width="2" d="M37.55,-935.87C35.51,-911.67 31.75,-867.21 29.31,-838.39"/>
<polygon fill="grey" stroke="grey" stroke-width="2" points="32.78,-837.86 28.45,-828.19 25.81,-838.45 32.78,-837.86"/>
</g>
<!-- 5 -->
<g id="node6" class="node">
<title>5</title>
<path fill="none" stroke="#afd856" stroke-width="2" d="M154,-252C154,-252 82,-252 82,-252 76,-252 70,-246 70,-240 70,-240 70,-228 70,-228 70,-222 76,-216 82,-216 82,-216 154,-216 154,-216 160,-216 166,-222 166,-228 166,-228 166,-240 166,-240 166,-246 160,-252 154,-252"/>
<text text-anchor="middle" x="118" y="-231.5" font-family="sans" font-size="10.00">costumevcffilter</text>
</g>
<!-- 5&#45;&gt;3 -->
<g id="edge5" class="edge">
<title>5&#45;&gt;3</title>
<path fill="none" stroke="grey" stroke-width="2" d="M115.78,-215.7C114.78,-207.98 113.59,-198.71 112.49,-190.11"/>
<polygon fill="grey" stroke="grey" stroke-width="2" points="115.95,-189.58 111.2,-180.1 109,-190.47 115.95,-189.58"/>
</g>
<!-- 6 -->
<g id="node7" class="node">
<title>6</title>
<path fill="none" stroke="#56d8c9" stroke-width="2" d="M151,-1044C151,-1044 95,-1044 95,-1044 89,-1044 83,-1038 83,-1032 83,-1032 83,-1020 83,-1020 83,-1014 89,-1008 95,-1008 95,-1008 151,-1008 151,-1008 157,-1008 163,-1014 163,-1020 163,-1020 163,-1032 163,-1032 163,-1038 157,-1044 151,-1044"/>
<text text-anchor="middle" x="123" y="-1023.5" font-family="sans" font-size="10.00">trimmomatic</text>
</g>
<!-- 6&#45;&gt;4 -->
<g id="edge6" class="edge">
<title>6&#45;&gt;4</title>
<path fill="none" stroke="grey" stroke-width="2" d="M102.24,-1007.7C91.76,-998.97 78.89,-988.24 67.5,-978.75"/>
<polygon fill="grey" stroke="grey" stroke-width="2" points="69.45,-975.82 59.53,-972.1 64.97,-981.19 69.45,-975.82"/>
</g>
<!-- 17 -->
<g id="node18" class="node">
<title>17</title>
<path fill="none" stroke="#56b9d8" stroke-width="2" d="M138,-972C138,-972 108,-972 108,-972 102,-972 96,-966 96,-960 96,-960 96,-948 96,-948 96,-942 102,-936 108,-936 108,-936 138,-936 138,-936 144,-936 150,-942 150,-948 150,-948 150,-960 150,-960 150,-966 144,-972 138,-972"/>
<text text-anchor="middle" x="123" y="-951.5" font-family="sans" font-size="10.00">ubam</text>
</g>
<!-- 6&#45;&gt;17 -->
<g id="edge19" class="edge">
<title>6&#45;&gt;17</title>
<path fill="none" stroke="grey" stroke-width="2" d="M123,-1007.7C123,-999.98 123,-990.71 123,-982.11"/>
<polygon fill="grey" stroke="grey" stroke-width="2" points="126.5,-982.1 123,-972.1 119.5,-982.1 126.5,-982.1"/>
</g>
<!-- 18 -->
<g id="node19" class="node">
<title>18</title>
<path fill="none" stroke="#d85656" stroke-width="2" d="M248,-972C248,-972 198,-972 198,-972 192,-972 186,-966 186,-960 186,-960 186,-948 186,-948 186,-942 192,-936 198,-936 198,-936 248,-936 248,-936 254,-936 260,-942 260,-948 260,-948 260,-960 260,-960 260,-966 254,-972 248,-972"/>
<text text-anchor="middle" x="223" y="-951.5" font-family="sans" font-size="10.00">bwa_mem2</text>
</g>
<!-- 6&#45;&gt;18 -->
<g id="edge20" class="edge">
<title>6&#45;&gt;18</title>
<path fill="none" stroke="grey" stroke-width="2" d="M147.46,-1007.88C160.3,-998.89 176.2,-987.76 190.09,-978.03"/>
<polygon fill="grey" stroke="grey" stroke-width="2" points="192.26,-980.79 198.44,-972.19 188.24,-975.06 192.26,-980.79"/>
</g>
<!-- 7 -->
<g id="node8" class="node">
<title>7</title>
<path fill="none" stroke="#56d87b" stroke-width="2" d="M158.5,-324C158.5,-324 81.5,-324 81.5,-324 75.5,-324 69.5,-318 69.5,-312 69.5,-312 69.5,-300 69.5,-300 69.5,-294 75.5,-288 81.5,-288 81.5,-288 158.5,-288 158.5,-288 164.5,-288 170.5,-294 170.5,-300 170.5,-300 170.5,-312 170.5,-312 170.5,-318 164.5,-324 158.5,-324"/>
<text text-anchor="middle" x="120" y="-303.5" font-family="sans" font-size="10.00">makereadablevcf</text>
</g>
<!-- 7&#45;&gt;5 -->
<g id="edge7" class="edge">
<title>7&#45;&gt;5</title>
<path fill="none" stroke="grey" stroke-width="2" d="M119.51,-287.7C119.29,-279.98 119.02,-270.71 118.77,-262.11"/>
<polygon fill="grey" stroke="grey" stroke-width="2" points="122.27,-262 118.49,-252.1 115.28,-262.2 122.27,-262"/>
</g>
<!-- 8 -->
<g id="node9" class="node">
<title>8</title>
<path fill="none" stroke="#61d856" stroke-width="2" d="M148,-396C148,-396 92,-396 92,-396 86,-396 80,-390 80,-384 80,-384 80,-372 80,-372 80,-366 86,-360 92,-360 92,-360 148,-360 148,-360 154,-360 160,-366 160,-372 160,-372 160,-384 160,-384 160,-390 154,-396 148,-396"/>
<text text-anchor="middle" x="120" y="-375.5" font-family="sans" font-size="10.00">hardfiltration</text>
</g>
<!-- 8&#45;&gt;7 -->
<g id="edge8" class="edge">
<title>8&#45;&gt;7</title>
<path fill="none" stroke="grey" stroke-width="2" d="M120,-359.7C120,-351.98 120,-342.71 120,-334.11"/>
<polygon fill="grey" stroke="grey" stroke-width="2" points="123.5,-334.1 120,-324.1 116.5,-334.1 123.5,-334.1"/>
</g>
<!-- 9 -->
<g id="node10" class="node">
<title>9</title>
<path fill="none" stroke="#56a2d8" stroke-width="2" d="M154.5,-468C154.5,-468 89.5,-468 89.5,-468 83.5,-468 77.5,-462 77.5,-456 77.5,-456 77.5,-444 77.5,-444 77.5,-438 83.5,-432 89.5,-432 89.5,-432 154.5,-432 154.5,-432 160.5,-432 166.5,-438 166.5,-444 166.5,-444 166.5,-456 166.5,-456 166.5,-462 160.5,-468 154.5,-468"/>
<text text-anchor="middle" x="122" y="-447.5" font-family="sans" font-size="10.00">genotypegvcfs</text>
</g>
<!-- 9&#45;&gt;8 -->
<g id="edge9" class="edge">
<title>9&#45;&gt;8</title>
<path fill="none" stroke="grey" stroke-width="2" d="M121.51,-431.7C121.29,-423.98 121.02,-414.71 120.77,-406.11"/>
<polygon fill="grey" stroke="grey" stroke-width="2" points="124.27,-406 120.49,-396.1 117.28,-406.2 124.27,-406"/>
</g>
<!-- 10 -->
<g id="node11" class="node">
<title>10</title>
<path fill="none" stroke="#97d856" stroke-width="2" d="M152.5,-540C152.5,-540 91.5,-540 91.5,-540 85.5,-540 79.5,-534 79.5,-528 79.5,-528 79.5,-516 79.5,-516 79.5,-510 85.5,-504 91.5,-504 91.5,-504 152.5,-504 152.5,-504 158.5,-504 164.5,-510 164.5,-516 164.5,-516 164.5,-528 164.5,-528 164.5,-534 158.5,-540 152.5,-540"/>
<text text-anchor="middle" x="122" y="-519.5" font-family="sans" font-size="10.00">combinegvcfs</text>
</g>
<!-- 10&#45;&gt;9 -->
<g id="edge10" class="edge">
<title>10&#45;&gt;9</title>
<path fill="none" stroke="grey" stroke-width="2" d="M122,-503.7C122,-495.98 122,-486.71 122,-478.11"/>
<polygon fill="grey" stroke="grey" stroke-width="2" points="125.5,-478.1 122,-468.1 118.5,-478.1 125.5,-478.1"/>
</g>
<!-- 11 -->
<g id="node12" class="node">
<title>11</title>
<path fill="none" stroke="#56d863" stroke-width="2" d="M159,-612C159,-612 91,-612 91,-612 85,-612 79,-606 79,-600 79,-600 79,-588 79,-588 79,-582 85,-576 91,-576 91,-576 159,-576 159,-576 165,-576 171,-582 171,-588 171,-588 171,-600 171,-600 171,-606 165,-612 159,-612"/>
<text text-anchor="middle" x="125" y="-591.5" font-family="sans" font-size="10.00">haplotypecaller</text>
</g>
<!-- 11&#45;&gt;10 -->
<g id="edge11" class="edge">
<title>11&#45;&gt;10</title>
<path fill="none" stroke="grey" stroke-width="2" d="M124.26,-575.7C123.93,-567.98 123.53,-558.71 123.16,-550.11"/>
<polygon fill="grey" stroke="grey" stroke-width="2" points="126.66,-549.95 122.73,-540.1 119.66,-550.25 126.66,-549.95"/>
</g>
<!-- 12 -->
<g id="node13" class="node">
<title>12</title>
<path fill="none" stroke="#d8a456" stroke-width="2" d="M150,-684C150,-684 100,-684 100,-684 94,-684 88,-678 88,-672 88,-672 88,-660 88,-660 88,-654 94,-648 100,-648 100,-648 150,-648 150,-648 156,-648 162,-654 162,-660 162,-660 162,-672 162,-672 162,-678 156,-684 150,-684"/>
<text text-anchor="middle" x="125" y="-663.5" font-family="sans" font-size="10.00">reorderbam</text>
</g>
<!-- 12&#45;&gt;11 -->
<g id="edge12" class="edge">
<title>12&#45;&gt;11</title>
<path fill="none" stroke="grey" stroke-width="2" d="M125,-647.7C125,-639.98 125,-630.71 125,-622.11"/>
<polygon fill="grey" stroke="grey" stroke-width="2" points="128.5,-622.1 125,-612.1 121.5,-622.1 128.5,-622.1"/>
</g>
<!-- 13 -->
<g id="node14" class="node">
<title>13</title>
<path fill="none" stroke="#d88556" stroke-width="2" d="M165,-756C165,-756 97,-756 97,-756 91,-756 85,-750 85,-744 85,-744 85,-732 85,-732 85,-726 91,-720 97,-720 97,-720 165,-720 165,-720 171,-720 177,-726 177,-732 177,-732 177,-744 177,-744 177,-750 171,-756 165,-756"/>
<text text-anchor="middle" x="131" y="-735.5" font-family="sans" font-size="10.00">markduplicates</text>
</g>
<!-- 13&#45;&gt;12 -->
<g id="edge13" class="edge">
<title>13&#45;&gt;12</title>
<path fill="none" stroke="grey" stroke-width="2" d="M129.52,-719.7C128.86,-711.98 128.06,-702.71 127.32,-694.11"/>
<polygon fill="grey" stroke="grey" stroke-width="2" points="130.81,-693.77 126.47,-684.1 123.83,-694.37 130.81,-693.77"/>
</g>
<!-- 14 -->
<g id="node15" class="node">
<title>14</title>
<path fill="none" stroke="#d8d356" stroke-width="2" d="M179.5,-828C179.5,-828 84.5,-828 84.5,-828 78.5,-828 72.5,-822 72.5,-816 72.5,-816 72.5,-804 72.5,-804 72.5,-798 78.5,-792 84.5,-792 84.5,-792 179.5,-792 179.5,-792 185.5,-792 191.5,-798 191.5,-804 191.5,-804 191.5,-816 191.5,-816 191.5,-822 185.5,-828 179.5,-828"/>
<text text-anchor="middle" x="132" y="-807.5" font-family="sans" font-size="10.00">mergebamalignment</text>
</g>
<!-- 14&#45;&gt;13 -->
<g id="edge14" class="edge">
<title>14&#45;&gt;13</title>
<path fill="none" stroke="grey" stroke-width="2" d="M131.75,-791.7C131.64,-783.98 131.51,-774.71 131.39,-766.11"/>
<polygon fill="grey" stroke="grey" stroke-width="2" points="134.89,-766.05 131.24,-756.1 127.89,-766.15 134.89,-766.05"/>
</g>
<!-- 15 -->
<g id="node16" class="node">
<title>15</title>
<path fill="none" stroke="#78d856" stroke-width="2" d="M178.5,-900C178.5,-900 67.5,-900 67.5,-900 61.5,-900 55.5,-894 55.5,-888 55.5,-888 55.5,-876 55.5,-876 55.5,-870 61.5,-864 67.5,-864 67.5,-864 178.5,-864 178.5,-864 184.5,-864 190.5,-870 190.5,-876 190.5,-876 190.5,-888 190.5,-888 190.5,-894 184.5,-900 178.5,-900"/>
<text text-anchor="middle" x="123" y="-879.5" font-family="sans" font-size="10.00">addorreplacereadgroups</text>
</g>
<!-- 15&#45;&gt;14 -->
<g id="edge15" class="edge">
<title>15&#45;&gt;14</title>
<path fill="none" stroke="grey" stroke-width="2" d="M125.22,-863.7C126.22,-855.98 127.41,-846.71 128.51,-838.11"/>
<polygon fill="grey" stroke="grey" stroke-width="2" points="132,-838.47 129.8,-828.1 125.05,-837.58 132,-838.47"/>
</g>
<!-- 16 -->
<g id="node17" class="node">
<title>16</title>
<path fill="none" stroke="#568ad8" stroke-width="2" d="M261.5,-900C261.5,-900 220.5,-900 220.5,-900 214.5,-900 208.5,-894 208.5,-888 208.5,-888 208.5,-876 208.5,-876 208.5,-870 214.5,-864 220.5,-864 220.5,-864 261.5,-864 261.5,-864 267.5,-864 273.5,-870 273.5,-876 273.5,-876 273.5,-888 273.5,-888 273.5,-894 267.5,-900 261.5,-900"/>
<text text-anchor="middle" x="241" y="-879.5" font-family="sans" font-size="10.00">sam2bam</text>
</g>
<!-- 16&#45;&gt;14 -->
<g id="edge16" class="edge">
<title>16&#45;&gt;14</title>
<path fill="none" stroke="grey" stroke-width="2" d="M214.34,-863.88C200.22,-854.81 182.69,-843.55 167.44,-833.76"/>
<polygon fill="grey" stroke="grey" stroke-width="2" points="169.07,-830.65 158.77,-828.19 165.29,-836.54 169.07,-830.65"/>
</g>
<!-- 17&#45;&gt;15 -->
<g id="edge17" class="edge">
<title>17&#45;&gt;15</title>
<path fill="none" stroke="grey" stroke-width="2" d="M123,-935.7C123,-927.98 123,-918.71 123,-910.11"/>
<polygon fill="grey" stroke="grey" stroke-width="2" points="126.5,-910.1 123,-900.1 119.5,-910.1 126.5,-910.1"/>
</g>
<!-- 18&#45;&gt;16 -->
<g id="edge18" class="edge">
<title>18&#45;&gt;16</title>
<path fill="none" stroke="grey" stroke-width="2" d="M227.45,-935.7C229.45,-927.9 231.87,-918.51 234.1,-909.83"/>
<polygon fill="grey" stroke="grey" stroke-width="2" points="237.5,-910.66 236.6,-900.1 230.72,-908.92 237.5,-910.66"/>
</g>
</g>
</svg>
