<?xml version="1.0" encoding="UTF-8" standalone="no"?>
<!DOCTYPE svg PUBLIC "-//W3C//DTD SVG 1.1//EN"
 "http://www.w3.org/Graphics/SVG/1.1/DTD/svg11.dtd">
<!-- Generated by graphviz version 2.40.1 (20161225.0304)
 -->
<!-- Title: snakemake_dag Pages: 1 -->
<svg width="329pt" height="1196pt"
 viewBox="0.00 0.00 328.50 1196.00" xmlns="http://www.w3.org/2000/svg" xmlns:xlink="http://www.w3.org/1999/xlink">
<g id="graph0" class="graph" transform="scale(1 1) rotate(0) translate(4 1192)">
<title>snakemake_dag</title>
<polygon fill="#ffffff" stroke="transparent" points="-4,4 -4,-1192 324.5,-1192 324.5,4 -4,4"/>
<!-- 0 -->
<g id="node1" class="node">
<title>0</title>
<path fill="none" stroke="#8fd856" stroke-width="2" d="M103.5,-36C103.5,-36 73.5,-36 73.5,-36 67.5,-36 61.5,-30 61.5,-24 61.5,-24 61.5,-12 61.5,-12 61.5,-6 67.5,0 73.5,0 73.5,0 103.5,0 103.5,0 109.5,0 115.5,-6 115.5,-12 115.5,-12 115.5,-24 115.5,-24 115.5,-30 109.5,-36 103.5,-36"/>
<text text-anchor="middle" x="88.5" y="-15.5" font-family="sans" font-size="10.00" fill="#000000">all</text>
</g>
<!-- 1 -->
<g id="node2" class="node">
<title>1</title>
<path fill="none" stroke="#d89556" stroke-width="2" d="M67.5,-108C67.5,-108 37.5,-108 37.5,-108 31.5,-108 25.5,-102 25.5,-96 25.5,-96 25.5,-84 25.5,-84 25.5,-78 31.5,-72 37.5,-72 37.5,-72 67.5,-72 67.5,-72 73.5,-72 79.5,-78 79.5,-84 79.5,-84 79.5,-96 79.5,-96 79.5,-102 73.5,-108 67.5,-108"/>
<text text-anchor="middle" x="52.5" y="-87.5" font-family="sans" font-size="10.00" fill="#000000">multiqc</text>
</g>
<!-- 1&#45;&gt;0 -->
<g id="edge1" class="edge">
<title>1&#45;&gt;0</title>
<path fill="none" stroke="#c0c0c0" stroke-width="2" d="M61.5843,-71.8314C65.5615,-63.8771 70.3155,-54.369 74.7139,-45.5723"/>
<polygon fill="#c0c0c0" stroke="#c0c0c0" stroke-width="2" points="77.9517,-46.9228 79.2934,-36.4133 71.6907,-43.7923 77.9517,-46.9228"/>
</g>
<!-- 2 -->
<g id="node3" class="node">
<title>2</title>
<path fill="none" stroke="#80d856" stroke-width="2" d="M140.5,-108C140.5,-108 110.5,-108 110.5,-108 104.5,-108 98.5,-102 98.5,-96 98.5,-96 98.5,-84 98.5,-84 98.5,-78 104.5,-72 110.5,-72 110.5,-72 140.5,-72 140.5,-72 146.5,-72 152.5,-78 152.5,-84 152.5,-84 152.5,-96 152.5,-96 152.5,-102 146.5,-108 140.5,-108"/>
<text text-anchor="middle" x="125.5" y="-87.5" font-family="sans" font-size="10.00" fill="#000000">iqtree</text>
</g>
<!-- 2&#45;&gt;0 -->
<g id="edge2" class="edge">
<title>2&#45;&gt;0</title>
<path fill="none" stroke="#c0c0c0" stroke-width="2" d="M116.1633,-71.8314C112.0757,-63.8771 107.1896,-54.369 102.6691,-45.5723"/>
<polygon fill="#c0c0c0" stroke="#c0c0c0" stroke-width="2" points="105.6461,-43.7078 97.9624,-36.4133 99.4201,-46.9074 105.6461,-43.7078"/>
</g>
<!-- 3 -->
<g id="node4" class="node">
<title>3</title>
<path fill="none" stroke="#d87d56" stroke-width="2" d="M64.5,-180C64.5,-180 34.5,-180 34.5,-180 28.5,-180 22.5,-174 22.5,-168 22.5,-168 22.5,-156 22.5,-156 22.5,-150 28.5,-144 34.5,-144 34.5,-144 64.5,-144 64.5,-144 70.5,-144 76.5,-150 76.5,-156 76.5,-156 76.5,-168 76.5,-168 76.5,-174 70.5,-180 64.5,-180"/>
<text text-anchor="middle" x="49.5" y="-159.5" font-family="sans" font-size="10.00" fill="#000000">fastqc</text>
</g>
<!-- 3&#45;&gt;1 -->
<g id="edge3" class="edge">
<title>3&#45;&gt;1</title>
<path fill="none" stroke="#c0c0c0" stroke-width="2" d="M50.257,-143.8314C50.5779,-136.131 50.9594,-126.9743 51.316,-118.4166"/>
<polygon fill="#c0c0c0" stroke="#c0c0c0" stroke-width="2" points="54.8133,-118.5503 51.7328,-108.4133 47.8194,-118.2589 54.8133,-118.5503"/>
</g>
<!-- 4 -->
<g id="node5" class="node">
<title>4</title>
<path fill="none" stroke="#56d892" stroke-width="2" d="M148.5,-180C148.5,-180 106.5,-180 106.5,-180 100.5,-180 94.5,-174 94.5,-168 94.5,-168 94.5,-156 94.5,-156 94.5,-150 100.5,-144 106.5,-144 106.5,-144 148.5,-144 148.5,-144 154.5,-144 160.5,-150 160.5,-156 160.5,-156 160.5,-168 160.5,-168 160.5,-174 154.5,-180 148.5,-180"/>
<text text-anchor="middle" x="127.5" y="-159.5" font-family="sans" font-size="10.00" fill="#000000">vcftofasta</text>
</g>
<!-- 4&#45;&gt;2 -->
<g id="edge4" class="edge">
<title>4&#45;&gt;2</title>
<path fill="none" stroke="#c0c0c0" stroke-width="2" d="M126.9953,-143.8314C126.7814,-136.131 126.5271,-126.9743 126.2894,-118.4166"/>
<polygon fill="#c0c0c0" stroke="#c0c0c0" stroke-width="2" points="129.7879,-118.3122 126.0115,-108.4133 122.7906,-118.5066 129.7879,-118.3122"/>
</g>
<!-- 5 -->
<g id="node6" class="node">
<title>5</title>
<path fill="none" stroke="#d8bc56" stroke-width="2" d="M163.5,-252C163.5,-252 91.5,-252 91.5,-252 85.5,-252 79.5,-246 79.5,-240 79.5,-240 79.5,-228 79.5,-228 79.5,-222 85.5,-216 91.5,-216 91.5,-216 163.5,-216 163.5,-216 169.5,-216 175.5,-222 175.5,-228 175.5,-228 175.5,-240 175.5,-240 175.5,-246 169.5,-252 163.5,-252"/>
<text text-anchor="middle" x="127.5" y="-231.5" font-family="sans" font-size="10.00" fill="#000000">costumevcffilter</text>
</g>
<!-- 5&#45;&gt;4 -->
<g id="edge5" class="edge">
<title>5&#45;&gt;4</title>
<path fill="none" stroke="#c0c0c0" stroke-width="2" d="M127.5,-215.8314C127.5,-208.131 127.5,-198.9743 127.5,-190.4166"/>
<polygon fill="#c0c0c0" stroke="#c0c0c0" stroke-width="2" points="131.0001,-190.4132 127.5,-180.4133 124.0001,-190.4133 131.0001,-190.4132"/>
</g>
<!-- 6 -->
<g id="node7" class="node">
<title>6</title>
<path fill="none" stroke="#56d8a9" stroke-width="2" d="M166.5,-324C166.5,-324 88.5,-324 88.5,-324 82.5,-324 76.5,-318 76.5,-312 76.5,-312 76.5,-300 76.5,-300 76.5,-294 82.5,-288 88.5,-288 88.5,-288 166.5,-288 166.5,-288 172.5,-288 178.5,-294 178.5,-300 178.5,-300 178.5,-312 178.5,-312 178.5,-318 172.5,-324 166.5,-324"/>
<text text-anchor="middle" x="127.5" y="-303.5" font-family="sans" font-size="10.00" fill="#000000">makereadablevcf</text>
</g>
<!-- 6&#45;&gt;5 -->
<g id="edge6" class="edge">
<title>6&#45;&gt;5</title>
<path fill="none" stroke="#c0c0c0" stroke-width="2" d="M127.5,-287.8314C127.5,-280.131 127.5,-270.9743 127.5,-262.4166"/>
<polygon fill="#c0c0c0" stroke="#c0c0c0" stroke-width="2" points="131.0001,-262.4132 127.5,-252.4133 124.0001,-262.4133 131.0001,-262.4132"/>
</g>
<!-- 7 -->
<g id="node8" class="node">
<title>7</title>
<path fill="none" stroke="#56d0d8" stroke-width="2" d="M155.5,-396C155.5,-396 99.5,-396 99.5,-396 93.5,-396 87.5,-390 87.5,-384 87.5,-384 87.5,-372 87.5,-372 87.5,-366 93.5,-360 99.5,-360 99.5,-360 155.5,-360 155.5,-360 161.5,-360 167.5,-366 167.5,-372 167.5,-372 167.5,-384 167.5,-384 167.5,-390 161.5,-396 155.5,-396"/>
<text text-anchor="middle" x="127.5" y="-375.5" font-family="sans" font-size="10.00" fill="#000000">hardfiltration</text>
</g>
<!-- 7&#45;&gt;6 -->
<g id="edge7" class="edge">
<title>7&#45;&gt;6</title>
<path fill="none" stroke="#c0c0c0" stroke-width="2" d="M127.5,-359.8314C127.5,-352.131 127.5,-342.9743 127.5,-334.4166"/>
<polygon fill="#c0c0c0" stroke="#c0c0c0" stroke-width="2" points="131.0001,-334.4132 127.5,-324.4133 124.0001,-334.4133 131.0001,-334.4132"/>
</g>
<!-- 8 -->
<g id="node9" class="node">
<title>8</title>
<path fill="none" stroke="#56d87b" stroke-width="2" d="M160,-468C160,-468 95,-468 95,-468 89,-468 83,-462 83,-456 83,-456 83,-444 83,-444 83,-438 89,-432 95,-432 95,-432 160,-432 160,-432 166,-432 172,-438 172,-444 172,-444 172,-456 172,-456 172,-462 166,-468 160,-468"/>
<text text-anchor="middle" x="127.5" y="-447.5" font-family="sans" font-size="10.00" fill="#000000">genotypegvcfs</text>
</g>
<!-- 8&#45;&gt;7 -->
<g id="edge8" class="edge">
<title>8&#45;&gt;7</title>
<path fill="none" stroke="#c0c0c0" stroke-width="2" d="M127.5,-431.8314C127.5,-424.131 127.5,-414.9743 127.5,-406.4166"/>
<polygon fill="#c0c0c0" stroke="#c0c0c0" stroke-width="2" points="131.0001,-406.4132 127.5,-396.4133 124.0001,-406.4133 131.0001,-406.4132"/>
</g>
<!-- 9 -->
<g id="node10" class="node">
<title>9</title>
<path fill="none" stroke="#59d856" stroke-width="2" d="M158,-540C158,-540 97,-540 97,-540 91,-540 85,-534 85,-528 85,-528 85,-516 85,-516 85,-510 91,-504 97,-504 97,-504 158,-504 158,-504 164,-504 170,-510 170,-516 170,-516 170,-528 170,-528 170,-534 164,-540 158,-540"/>
<text text-anchor="middle" x="127.5" y="-519.5" font-family="sans" font-size="10.00" fill="#000000">combinegvcfs</text>
</g>
<!-- 9&#45;&gt;8 -->
<g id="edge9" class="edge">
<title>9&#45;&gt;8</title>
<path fill="none" stroke="#c0c0c0" stroke-width="2" d="M127.5,-503.8314C127.5,-496.131 127.5,-486.9743 127.5,-478.4166"/>
<polygon fill="#c0c0c0" stroke="#c0c0c0" stroke-width="2" points="131.0001,-478.4132 127.5,-468.4133 124.0001,-478.4133 131.0001,-478.4132"/>
</g>
<!-- 10 -->
<g id="node11" class="node">
<title>10</title>
<path fill="none" stroke="#d86e56" stroke-width="2" d="M99.5,-612C99.5,-612 31.5,-612 31.5,-612 25.5,-612 19.5,-606 19.5,-600 19.5,-600 19.5,-588 19.5,-588 19.5,-582 25.5,-576 31.5,-576 31.5,-576 99.5,-576 99.5,-576 105.5,-576 111.5,-582 111.5,-588 111.5,-588 111.5,-600 111.5,-600 111.5,-606 105.5,-612 99.5,-612"/>
<text text-anchor="middle" x="65.5" y="-591.5" font-family="sans" font-size="10.00" fill="#000000">haplotypecaller</text>
</g>
<!-- 10&#45;&gt;9 -->
<g id="edge10" class="edge">
<title>10&#45;&gt;9</title>
<path fill="none" stroke="#c0c0c0" stroke-width="2" d="M81.1452,-575.8314C88.3591,-567.454 97.057,-557.3531 104.9605,-548.1749"/>
<polygon fill="#c0c0c0" stroke="#c0c0c0" stroke-width="2" points="107.7711,-550.2748 111.6441,-540.4133 102.4667,-545.7071 107.7711,-550.2748"/>
</g>
<!-- 11 -->
<g id="node12" class="node">
<title>11</title>
<path fill="none" stroke="#5692d8" stroke-width="2" d="M239.5,-612C239.5,-612 141.5,-612 141.5,-612 135.5,-612 129.5,-606 129.5,-600 129.5,-600 129.5,-588 129.5,-588 129.5,-582 135.5,-576 141.5,-576 141.5,-576 239.5,-576 239.5,-576 245.5,-576 251.5,-582 251.5,-588 251.5,-588 251.5,-600 251.5,-600 251.5,-606 245.5,-612 239.5,-612"/>
<text text-anchor="middle" x="190.5" y="-591.5" font-family="sans" font-size="10.00" fill="#000000">haplotypecaller_fasta</text>
</g>
<!-- 11&#45;&gt;9 -->
<g id="edge11" class="edge">
<title>11&#45;&gt;9</title>
<path fill="none" stroke="#c0c0c0" stroke-width="2" d="M174.6024,-575.8314C167.2722,-567.454 158.434,-557.3531 150.4031,-548.1749"/>
<polygon fill="#c0c0c0" stroke="#c0c0c0" stroke-width="2" points="152.8307,-545.6343 143.6116,-540.4133 147.5627,-550.2438 152.8307,-545.6343"/>
</g>
<!-- 12 -->
<g id="node13" class="node">
<title>12</title>
<path fill="none" stroke="#68d856" stroke-width="2" d="M90.5,-684C90.5,-684 40.5,-684 40.5,-684 34.5,-684 28.5,-678 28.5,-672 28.5,-672 28.5,-660 28.5,-660 28.5,-654 34.5,-648 40.5,-648 40.5,-648 90.5,-648 90.5,-648 96.5,-648 102.5,-654 102.5,-660 102.5,-660 102.5,-672 102.5,-672 102.5,-678 96.5,-684 90.5,-684"/>
<text text-anchor="middle" x="65.5" y="-663.5" font-family="sans" font-size="10.00" fill="#000000">reorderbam</text>
</g>
<!-- 12&#45;&gt;10 -->
<g id="edge12" class="edge">
<title>12&#45;&gt;10</title>
<path fill="none" stroke="#c0c0c0" stroke-width="2" d="M65.5,-647.8314C65.5,-640.131 65.5,-630.9743 65.5,-622.4166"/>
<polygon fill="#c0c0c0" stroke="#c0c0c0" stroke-width="2" points="69.0001,-622.4132 65.5,-612.4133 62.0001,-622.4133 69.0001,-622.4132"/>
</g>
<!-- 13 -->
<g id="node14" class="node">
<title>13</title>
<path fill="none" stroke="#d8a456" stroke-width="2" d="M230.5,-684C230.5,-684 150.5,-684 150.5,-684 144.5,-684 138.5,-678 138.5,-672 138.5,-672 138.5,-660 138.5,-660 138.5,-654 144.5,-648 150.5,-648 150.5,-648 230.5,-648 230.5,-648 236.5,-648 242.5,-654 242.5,-660 242.5,-660 242.5,-672 242.5,-672 242.5,-678 236.5,-684 230.5,-684"/>
<text text-anchor="middle" x="190.5" y="-663.5" font-family="sans" font-size="10.00" fill="#000000">reorderbam_fasta</text>
</g>
<!-- 13&#45;&gt;11 -->
<g id="edge13" class="edge">
<title>13&#45;&gt;11</title>
<path fill="none" stroke="#c0c0c0" stroke-width="2" d="M190.5,-647.8314C190.5,-640.131 190.5,-630.9743 190.5,-622.4166"/>
<polygon fill="#c0c0c0" stroke="#c0c0c0" stroke-width="2" points="194.0001,-622.4132 190.5,-612.4133 187.0001,-622.4133 194.0001,-622.4132"/>
</g>
<!-- 14 -->
<g id="node15" class="node">
<title>14</title>
<path fill="none" stroke="#a7d856" stroke-width="2" d="M99.5,-756C99.5,-756 31.5,-756 31.5,-756 25.5,-756 19.5,-750 19.5,-744 19.5,-744 19.5,-732 19.5,-732 19.5,-726 25.5,-720 31.5,-720 31.5,-720 99.5,-720 99.5,-720 105.5,-720 111.5,-726 111.5,-732 111.5,-732 111.5,-744 111.5,-744 111.5,-750 105.5,-756 99.5,-756"/>
<text text-anchor="middle" x="65.5" y="-735.5" font-family="sans" font-size="10.00" fill="#000000">markduplicates</text>
</g>
<!-- 14&#45;&gt;12 -->
<g id="edge14" class="edge">
<title>14&#45;&gt;12</title>
<path fill="none" stroke="#c0c0c0" stroke-width="2" d="M65.5,-719.8314C65.5,-712.131 65.5,-702.9743 65.5,-694.4166"/>
<polygon fill="#c0c0c0" stroke="#c0c0c0" stroke-width="2" points="69.0001,-694.4132 65.5,-684.4133 62.0001,-694.4133 69.0001,-694.4132"/>
</g>
<!-- 15 -->
<g id="node16" class="node">
<title>15</title>
<path fill="none" stroke="#d85656" stroke-width="2" d="M239.5,-756C239.5,-756 141.5,-756 141.5,-756 135.5,-756 129.5,-750 129.5,-744 129.5,-744 129.5,-732 129.5,-732 129.5,-726 135.5,-720 141.5,-720 141.5,-720 239.5,-720 239.5,-720 245.5,-720 251.5,-726 251.5,-732 251.5,-732 251.5,-744 251.5,-744 251.5,-750 245.5,-756 239.5,-756"/>
<text text-anchor="middle" x="190.5" y="-735.5" font-family="sans" font-size="10.00" fill="#000000">markduplicates_fasta</text>
</g>
<!-- 15&#45;&gt;13 -->
<g id="edge15" class="edge">
<title>15&#45;&gt;13</title>
<path fill="none" stroke="#c0c0c0" stroke-width="2" d="M190.5,-719.8314C190.5,-712.131 190.5,-702.9743 190.5,-694.4166"/>
<polygon fill="#c0c0c0" stroke="#c0c0c0" stroke-width="2" points="194.0001,-694.4132 190.5,-684.4133 187.0001,-694.4133 194.0001,-694.4132"/>
</g>
<!-- 16 -->
<g id="node17" class="node">
<title>16</title>
<path fill="none" stroke="#b6d856" stroke-width="2" d="M115,-828C115,-828 20,-828 20,-828 14,-828 8,-822 8,-816 8,-816 8,-804 8,-804 8,-798 14,-792 20,-792 20,-792 115,-792 115,-792 121,-792 127,-798 127,-804 127,-804 127,-816 127,-816 127,-822 121,-828 115,-828"/>
<text text-anchor="middle" x="67.5" y="-807.5" font-family="sans" font-size="10.00" fill="#000000">mergebamalignment</text>
</g>
<!-- 16&#45;&gt;14 -->
<g id="edge16" class="edge">
<title>16&#45;&gt;14</title>
<path fill="none" stroke="#c0c0c0" stroke-width="2" d="M66.9953,-791.8314C66.7814,-784.131 66.5271,-774.9743 66.2894,-766.4166"/>
<polygon fill="#c0c0c0" stroke="#c0c0c0" stroke-width="2" points="69.7879,-766.3122 66.0115,-756.4133 62.7906,-766.5066 69.7879,-766.3122"/>
</g>
<!-- 17 -->
<g id="node18" class="node">
<title>17</title>
<path fill="none" stroke="#56d86b" stroke-width="2" d="M220.5,-828C220.5,-828 158.5,-828 158.5,-828 152.5,-828 146.5,-822 146.5,-816 146.5,-816 146.5,-804 146.5,-804 146.5,-798 152.5,-792 158.5,-792 158.5,-792 220.5,-792 220.5,-792 226.5,-792 232.5,-798 232.5,-804 232.5,-804 232.5,-816 232.5,-816 232.5,-822 226.5,-828 220.5,-828"/>
<text text-anchor="middle" x="189.5" y="-807.5" font-family="sans" font-size="10.00" fill="#000000">samtools_sort</text>
</g>
<!-- 17&#45;&gt;15 -->
<g id="edge17" class="edge">
<title>17&#45;&gt;15</title>
<path fill="none" stroke="#c0c0c0" stroke-width="2" d="M189.7523,-791.8314C189.8593,-784.131 189.9865,-774.9743 190.1053,-766.4166"/>
<polygon fill="#c0c0c0" stroke="#c0c0c0" stroke-width="2" points="193.6049,-766.4609 190.2443,-756.4133 186.6056,-766.3637 193.6049,-766.4609"/>
</g>
<!-- 18 -->
<g id="node19" class="node">
<title>18</title>
<path fill="none" stroke="#ced856" stroke-width="2" d="M123,-900C123,-900 12,-900 12,-900 6,-900 0,-894 0,-888 0,-888 0,-876 0,-876 0,-870 6,-864 12,-864 12,-864 123,-864 123,-864 129,-864 135,-870 135,-876 135,-876 135,-888 135,-888 135,-894 129,-900 123,-900"/>
<text text-anchor="middle" x="67.5" y="-879.5" font-family="sans" font-size="10.00" fill="#000000">addorreplacereadgroups</text>
</g>
<!-- 18&#45;&gt;16 -->
<g id="edge19" class="edge">
<title>18&#45;&gt;16</title>
<path fill="none" stroke="#c0c0c0" stroke-width="2" d="M67.5,-863.8314C67.5,-856.131 67.5,-846.9743 67.5,-838.4166"/>
<polygon fill="#c0c0c0" stroke="#c0c0c0" stroke-width="2" points="71.0001,-838.4132 67.5,-828.4133 64.0001,-838.4133 71.0001,-838.4132"/>
</g>
<!-- 19 -->
<g id="node20" class="node">
<title>19</title>
<path fill="none" stroke="#56b9d8" stroke-width="2" d="M207,-900C207,-900 166,-900 166,-900 160,-900 154,-894 154,-888 154,-888 154,-876 154,-876 154,-870 160,-864 166,-864 166,-864 207,-864 207,-864 213,-864 219,-870 219,-876 219,-876 219,-888 219,-888 219,-894 213,-900 207,-900"/>
<text text-anchor="middle" x="186.5" y="-879.5" font-family="sans" font-size="10.00" fill="#000000">sam2bam</text>
</g>
<!-- 19&#45;&gt;16 -->
<g id="edge18" class="edge">
<title>19&#45;&gt;16</title>
<path fill="none" stroke="#c0c0c0" stroke-width="2" d="M156.4713,-863.8314C141.2504,-854.6221 122.5872,-843.3301 106.2917,-833.4706"/>
<polygon fill="#c0c0c0" stroke="#c0c0c0" stroke-width="2" points="107.8868,-830.345 97.5191,-828.1628 104.2631,-836.3341 107.8868,-830.345"/>
</g>
<!-- 19&#45;&gt;17 -->
<g id="edge20" class="edge">
<title>19&#45;&gt;17</title>
<path fill="none" stroke="#c0c0c0" stroke-width="2" d="M187.257,-863.8314C187.5779,-856.131 187.9594,-846.9743 188.316,-838.4166"/>
<polygon fill="#c0c0c0" stroke="#c0c0c0" stroke-width="2" points="191.8133,-838.5503 188.7328,-828.4133 184.8194,-838.2589 191.8133,-838.5503"/>
</g>
<!-- 20 -->
<g id="node21" class="node">
<title>20</title>
<path fill="none" stroke="#56d8d0" stroke-width="2" d="M82.5,-972C82.5,-972 52.5,-972 52.5,-972 46.5,-972 40.5,-966 40.5,-960 40.5,-960 40.5,-948 40.5,-948 40.5,-942 46.5,-936 52.5,-936 52.5,-936 82.5,-936 82.5,-936 88.5,-936 94.5,-942 94.5,-948 94.5,-948 94.5,-960 94.5,-960 94.5,-966 88.5,-972 82.5,-972"/>
<text text-anchor="middle" x="67.5" y="-951.5" font-family="sans" font-size="10.00" fill="#000000">ubam</text>
</g>
<!-- 20&#45;&gt;18 -->
<g id="edge21" class="edge">
<title>20&#45;&gt;18</title>
<path fill="none" stroke="#c0c0c0" stroke-width="2" d="M67.5,-935.8314C67.5,-928.131 67.5,-918.9743 67.5,-910.4166"/>
<polygon fill="#c0c0c0" stroke="#c0c0c0" stroke-width="2" points="71.0001,-910.4132 67.5,-900.4133 64.0001,-910.4133 71.0001,-910.4132"/>
</g>
<!-- 21 -->
<g id="node22" class="node">
<title>21</title>
<path fill="none" stroke="#566bd8" stroke-width="2" d="M192.5,-972C192.5,-972 142.5,-972 142.5,-972 136.5,-972 130.5,-966 130.5,-960 130.5,-960 130.5,-948 130.5,-948 130.5,-942 136.5,-936 142.5,-936 142.5,-936 192.5,-936 192.5,-936 198.5,-936 204.5,-942 204.5,-948 204.5,-948 204.5,-960 204.5,-960 204.5,-966 198.5,-972 192.5,-972"/>
<text text-anchor="middle" x="167.5" y="-951.5" font-family="sans" font-size="10.00" fill="#000000">bwa_mem2</text>
</g>
<!-- 21&#45;&gt;19 -->
<g id="edge23" class="edge">
<title>21&#45;&gt;19</title>
<path fill="none" stroke="#c0c0c0" stroke-width="2" d="M172.2945,-935.8314C174.3489,-928.0463 176.796,-918.7729 179.0756,-910.1347"/>
<polygon fill="#c0c0c0" stroke="#c0c0c0" stroke-width="2" points="182.4735,-910.9753 181.6409,-900.4133 175.7052,-909.1892 182.4735,-910.9753"/>
</g>
<!-- 22 -->
<g id="node23" class="node">
<title>22</title>
<path fill="none" stroke="#d8cb56" stroke-width="2" d="M308.5,-972C308.5,-972 234.5,-972 234.5,-972 228.5,-972 222.5,-966 222.5,-960 222.5,-960 222.5,-948 222.5,-948 222.5,-942 228.5,-936 234.5,-936 234.5,-936 308.5,-936 308.5,-936 314.5,-936 320.5,-942 320.5,-948 320.5,-948 320.5,-960 320.5,-960 320.5,-966 314.5,-972 308.5,-972"/>
<text text-anchor="middle" x="271.5" y="-951.5" font-family="sans" font-size="10.00" fill="#000000">bwa_mem_fasta</text>
</g>
<!-- 22&#45;&gt;19 -->
<g id="edge22" class="edge">
<title>22&#45;&gt;19</title>
<path fill="none" stroke="#c0c0c0" stroke-width="2" d="M250.0509,-935.8314C239.6822,-927.0485 227.0771,-916.3712 215.8354,-906.8489"/>
<polygon fill="#c0c0c0" stroke="#c0c0c0" stroke-width="2" points="217.8349,-903.9556 207.9422,-900.1628 213.3105,-909.297 217.8349,-903.9556"/>
</g>
<!-- 23 -->
<g id="node24" class="node">
<title>23</title>
<path fill="none" stroke="#56d8b9" stroke-width="2" d="M191.5,-1044C191.5,-1044 143.5,-1044 143.5,-1044 137.5,-1044 131.5,-1038 131.5,-1032 131.5,-1032 131.5,-1020 131.5,-1020 131.5,-1014 137.5,-1008 143.5,-1008 143.5,-1008 191.5,-1008 191.5,-1008 197.5,-1008 203.5,-1014 203.5,-1020 203.5,-1020 203.5,-1032 203.5,-1032 203.5,-1038 197.5,-1044 191.5,-1044"/>
<text text-anchor="middle" x="167.5" y="-1023.5" font-family="sans" font-size="10.00" fill="#000000">samtofastq</text>
</g>
<!-- 23&#45;&gt;21 -->
<g id="edge24" class="edge">
<title>23&#45;&gt;21</title>
<path fill="none" stroke="#c0c0c0" stroke-width="2" d="M167.5,-1007.8314C167.5,-1000.131 167.5,-990.9743 167.5,-982.4166"/>
<polygon fill="#c0c0c0" stroke="#c0c0c0" stroke-width="2" points="171.0001,-982.4132 167.5,-972.4133 164.0001,-982.4133 171.0001,-982.4132"/>
</g>
<!-- 24 -->
<g id="node25" class="node">
<title>24</title>
<path fill="none" stroke="#567bd8" stroke-width="2" d="M218,-1116C218,-1116 117,-1116 117,-1116 111,-1116 105,-1110 105,-1104 105,-1104 105,-1092 105,-1092 105,-1086 111,-1080 117,-1080 117,-1080 218,-1080 218,-1080 224,-1080 230,-1086 230,-1092 230,-1092 230,-1104 230,-1104 230,-1110 224,-1116 218,-1116"/>
<text text-anchor="middle" x="167.5" y="-1095.5" font-family="sans" font-size="10.00" fill="#000000">markilluminaadapters</text>
</g>
<!-- 24&#45;&gt;23 -->
<g id="edge25" class="edge">
<title>24&#45;&gt;23</title>
<path fill="none" stroke="#c0c0c0" stroke-width="2" d="M167.5,-1079.8314C167.5,-1072.131 167.5,-1062.9743 167.5,-1054.4166"/>
<polygon fill="#c0c0c0" stroke="#c0c0c0" stroke-width="2" points="171.0001,-1054.4132 167.5,-1044.4133 164.0001,-1054.4133 171.0001,-1054.4132"/>
</g>
<!-- 25 -->
<g id="node26" class="node">
<title>25</title>
<path fill="none" stroke="#56a9d8" stroke-width="2" d="M189.5,-1188C189.5,-1188 145.5,-1188 145.5,-1188 139.5,-1188 133.5,-1182 133.5,-1176 133.5,-1176 133.5,-1164 133.5,-1164 133.5,-1158 139.5,-1152 145.5,-1152 145.5,-1152 189.5,-1152 189.5,-1152 195.5,-1152 201.5,-1158 201.5,-1164 201.5,-1164 201.5,-1176 201.5,-1176 201.5,-1182 195.5,-1188 189.5,-1188"/>
<text text-anchor="middle" x="167.5" y="-1167.5" font-family="sans" font-size="10.00" fill="#000000">bwa_mem</text>
</g>
<!-- 25&#45;&gt;24 -->
<g id="edge26" class="edge">
<title>25&#45;&gt;24</title>
<path fill="none" stroke="#c0c0c0" stroke-width="2" d="M167.5,-1151.8314C167.5,-1144.131 167.5,-1134.9743 167.5,-1126.4166"/>
<polygon fill="#c0c0c0" stroke="#c0c0c0" stroke-width="2" points="171.0001,-1126.4132 167.5,-1116.4133 164.0001,-1126.4133 171.0001,-1126.4132"/>
</g>
</g>
</svg>
