<?xml version="1.0" encoding="UTF-8" standalone="no"?>
<!DOCTYPE svg PUBLIC "-//W3C//DTD SVG 1.1//EN"
 "http://www.w3.org/Graphics/SVG/1.1/DTD/svg11.dtd">
<!-- Generated by graphviz version 2.40.1 (20161225.0304)
 -->
<!-- Title: snakemake_dag Pages: 1 -->
<svg width="269pt" height="1196pt"
 viewBox="0.00 0.00 269.00 1196.00" xmlns="http://www.w3.org/2000/svg" xmlns:xlink="http://www.w3.org/1999/xlink">
<g id="graph0" class="graph" transform="scale(1 1) rotate(0) translate(4 1192)">
<title>snakemake_dag</title>
<polygon fill="#ffffff" stroke="transparent" points="-4,4 -4,-1192 265,-1192 265,4 -4,4"/>
<!-- 0 -->
<g id="node1" class="node">
<title>0</title>
<path fill="none" stroke="#5673d8" stroke-width="2" d="M181.5,-36C181.5,-36 151.5,-36 151.5,-36 145.5,-36 139.5,-30 139.5,-24 139.5,-24 139.5,-12 139.5,-12 139.5,-6 145.5,0 151.5,0 151.5,0 181.5,0 181.5,0 187.5,0 193.5,-6 193.5,-12 193.5,-12 193.5,-24 193.5,-24 193.5,-30 187.5,-36 181.5,-36"/>
<text text-anchor="middle" x="166.5" y="-15.5" font-family="sans" font-size="10.00" fill="#000000">all</text>
</g>
<!-- 1 -->
<g id="node2" class="node">
<title>1</title>
<path fill="none" stroke="#56a2d8" stroke-width="2" d="M145.5,-108C145.5,-108 115.5,-108 115.5,-108 109.5,-108 103.5,-102 103.5,-96 103.5,-96 103.5,-84 103.5,-84 103.5,-78 109.5,-72 115.5,-72 115.5,-72 145.5,-72 145.5,-72 151.5,-72 157.5,-78 157.5,-84 157.5,-84 157.5,-96 157.5,-96 157.5,-102 151.5,-108 145.5,-108"/>
<text text-anchor="middle" x="130.5" y="-87.5" font-family="sans" font-size="10.00" fill="#000000">raxml</text>
</g>
<!-- 1&#45;&gt;0 -->
<g id="edge2" class="edge">
<title>1&#45;&gt;0</title>
<path fill="none" stroke="#c0c0c0" stroke-width="2" d="M139.5843,-71.8314C143.5615,-63.8771 148.3155,-54.369 152.7139,-45.5723"/>
<polygon fill="#c0c0c0" stroke="#c0c0c0" stroke-width="2" points="155.9517,-46.9228 157.2934,-36.4133 149.6907,-43.7923 155.9517,-46.9228"/>
</g>
<!-- 2 -->
<g id="node3" class="node">
<title>2</title>
<path fill="none" stroke="#d8bc56" stroke-width="2" d="M218.5,-108C218.5,-108 188.5,-108 188.5,-108 182.5,-108 176.5,-102 176.5,-96 176.5,-96 176.5,-84 176.5,-84 176.5,-78 182.5,-72 188.5,-72 188.5,-72 218.5,-72 218.5,-72 224.5,-72 230.5,-78 230.5,-84 230.5,-84 230.5,-96 230.5,-96 230.5,-102 224.5,-108 218.5,-108"/>
<text text-anchor="middle" x="203.5" y="-87.5" font-family="sans" font-size="10.00" fill="#000000">multiqc</text>
</g>
<!-- 2&#45;&gt;0 -->
<g id="edge1" class="edge">
<title>2&#45;&gt;0</title>
<path fill="none" stroke="#c0c0c0" stroke-width="2" d="M194.1633,-71.8314C190.0757,-63.8771 185.1896,-54.369 180.6691,-45.5723"/>
<polygon fill="#c0c0c0" stroke="#c0c0c0" stroke-width="2" points="183.6461,-43.7078 175.9624,-36.4133 177.4201,-46.9074 183.6461,-43.7078"/>
</g>
<!-- 3 -->
<g id="node4" class="node">
<title>3</title>
<path fill="none" stroke="#d8a456" stroke-width="2" d="M148.5,-180C148.5,-180 106.5,-180 106.5,-180 100.5,-180 94.5,-174 94.5,-168 94.5,-168 94.5,-156 94.5,-156 94.5,-150 100.5,-144 106.5,-144 106.5,-144 148.5,-144 148.5,-144 154.5,-144 160.5,-150 160.5,-156 160.5,-156 160.5,-168 160.5,-168 160.5,-174 154.5,-180 148.5,-180"/>
<text text-anchor="middle" x="127.5" y="-159.5" font-family="sans" font-size="10.00" fill="#000000">vcftofasta</text>
</g>
<!-- 3&#45;&gt;1 -->
<g id="edge3" class="edge">
<title>3&#45;&gt;1</title>
<path fill="none" stroke="#c0c0c0" stroke-width="2" d="M128.257,-143.8314C128.5779,-136.131 128.9594,-126.9743 129.316,-118.4166"/>
<polygon fill="#c0c0c0" stroke="#c0c0c0" stroke-width="2" points="132.8133,-118.5503 129.7328,-108.4133 125.8194,-118.2589 132.8133,-118.5503"/>
</g>
<!-- 4 -->
<g id="node5" class="node">
<title>4</title>
<path fill="none" stroke="#56b9d8" stroke-width="2" d="M220.5,-180C220.5,-180 190.5,-180 190.5,-180 184.5,-180 178.5,-174 178.5,-168 178.5,-168 178.5,-156 178.5,-156 178.5,-150 184.5,-144 190.5,-144 190.5,-144 220.5,-144 220.5,-144 226.5,-144 232.5,-150 232.5,-156 232.5,-156 232.5,-168 232.5,-168 232.5,-174 226.5,-180 220.5,-180"/>
<text text-anchor="middle" x="205.5" y="-159.5" font-family="sans" font-size="10.00" fill="#000000">fastqc</text>
</g>
<!-- 4&#45;&gt;2 -->
<g id="edge4" class="edge">
<title>4&#45;&gt;2</title>
<path fill="none" stroke="#c0c0c0" stroke-width="2" d="M204.9953,-143.8314C204.7814,-136.131 204.5271,-126.9743 204.2894,-118.4166"/>
<polygon fill="#c0c0c0" stroke="#c0c0c0" stroke-width="2" points="207.7879,-118.3122 204.0115,-108.4133 200.7906,-118.5066 207.7879,-118.3122"/>
</g>
<!-- 5 -->
<g id="node6" class="node">
<title>5</title>
<path fill="none" stroke="#d88556" stroke-width="2" d="M163.5,-252C163.5,-252 91.5,-252 91.5,-252 85.5,-252 79.5,-246 79.5,-240 79.5,-240 79.5,-228 79.5,-228 79.5,-222 85.5,-216 91.5,-216 91.5,-216 163.5,-216 163.5,-216 169.5,-216 175.5,-222 175.5,-228 175.5,-228 175.5,-240 175.5,-240 175.5,-246 169.5,-252 163.5,-252"/>
<text text-anchor="middle" x="127.5" y="-231.5" font-family="sans" font-size="10.00" fill="#000000">costumevcffilter</text>
</g>
<!-- 5&#45;&gt;3 -->
<g id="edge5" class="edge">
<title>5&#45;&gt;3</title>
<path fill="none" stroke="#c0c0c0" stroke-width="2" d="M127.5,-215.8314C127.5,-208.131 127.5,-198.9743 127.5,-190.4166"/>
<polygon fill="#c0c0c0" stroke="#c0c0c0" stroke-width="2" points="131.0001,-190.4132 127.5,-180.4133 124.0001,-190.4133 131.0001,-190.4132"/>
</g>
<!-- 6 -->
<g id="node7" class="node">
<title>6</title>
<path fill="none" stroke="#c6d856" stroke-width="2" d="M166.5,-324C166.5,-324 88.5,-324 88.5,-324 82.5,-324 76.5,-318 76.5,-312 76.5,-312 76.5,-300 76.5,-300 76.5,-294 82.5,-288 88.5,-288 88.5,-288 166.5,-288 166.5,-288 172.5,-288 178.5,-294 178.5,-300 178.5,-300 178.5,-312 178.5,-312 178.5,-318 172.5,-324 166.5,-324"/>
<text text-anchor="middle" x="127.5" y="-303.5" font-family="sans" font-size="10.00" fill="#000000">makereadablevcf</text>
</g>
<!-- 6&#45;&gt;5 -->
<g id="edge6" class="edge">
<title>6&#45;&gt;5</title>
<path fill="none" stroke="#c0c0c0" stroke-width="2" d="M127.5,-287.8314C127.5,-280.131 127.5,-270.9743 127.5,-262.4166"/>
<polygon fill="#c0c0c0" stroke="#c0c0c0" stroke-width="2" points="131.0001,-262.4132 127.5,-252.4133 124.0001,-262.4133 131.0001,-262.4132"/>
</g>
<!-- 7 -->
<g id="node8" class="node">
<title>7</title>
<path fill="none" stroke="#d8d356" stroke-width="2" d="M155.5,-396C155.5,-396 99.5,-396 99.5,-396 93.5,-396 87.5,-390 87.5,-384 87.5,-384 87.5,-372 87.5,-372 87.5,-366 93.5,-360 99.5,-360 99.5,-360 155.5,-360 155.5,-360 161.5,-360 167.5,-366 167.5,-372 167.5,-372 167.5,-384 167.5,-384 167.5,-390 161.5,-396 155.5,-396"/>
<text text-anchor="middle" x="127.5" y="-375.5" font-family="sans" font-size="10.00" fill="#000000">hardfiltration</text>
</g>
<!-- 7&#45;&gt;6 -->
<g id="edge7" class="edge">
<title>7&#45;&gt;6</title>
<path fill="none" stroke="#c0c0c0" stroke-width="2" d="M127.5,-359.8314C127.5,-352.131 127.5,-342.9743 127.5,-334.4166"/>
<polygon fill="#c0c0c0" stroke="#c0c0c0" stroke-width="2" points="131.0001,-334.4132 127.5,-324.4133 124.0001,-334.4133 131.0001,-334.4132"/>
</g>
<!-- 8 -->
<g id="node9" class="node">
<title>8</title>
<path fill="none" stroke="#afd856" stroke-width="2" d="M160,-468C160,-468 95,-468 95,-468 89,-468 83,-462 83,-456 83,-456 83,-444 83,-444 83,-438 89,-432 95,-432 95,-432 160,-432 160,-432 166,-432 172,-438 172,-444 172,-444 172,-456 172,-456 172,-462 166,-468 160,-468"/>
<text text-anchor="middle" x="127.5" y="-447.5" font-family="sans" font-size="10.00" fill="#000000">genotypegvcfs</text>
</g>
<!-- 8&#45;&gt;7 -->
<g id="edge8" class="edge">
<title>8&#45;&gt;7</title>
<path fill="none" stroke="#c0c0c0" stroke-width="2" d="M127.5,-431.8314C127.5,-424.131 127.5,-414.9743 127.5,-406.4166"/>
<polygon fill="#c0c0c0" stroke="#c0c0c0" stroke-width="2" points="131.0001,-406.4132 127.5,-396.4133 124.0001,-406.4133 131.0001,-406.4132"/>
</g>
<!-- 9 -->
<g id="node10" class="node">
<title>9</title>
<path fill="none" stroke="#56d8c9" stroke-width="2" d="M158,-540C158,-540 97,-540 97,-540 91,-540 85,-534 85,-528 85,-528 85,-516 85,-516 85,-510 91,-504 97,-504 97,-504 158,-504 158,-504 164,-504 170,-510 170,-516 170,-516 170,-528 170,-528 170,-534 164,-540 158,-540"/>
<text text-anchor="middle" x="127.5" y="-519.5" font-family="sans" font-size="10.00" fill="#000000">combinegvcfs</text>
</g>
<!-- 9&#45;&gt;8 -->
<g id="edge9" class="edge">
<title>9&#45;&gt;8</title>
<path fill="none" stroke="#c0c0c0" stroke-width="2" d="M127.5,-503.8314C127.5,-496.131 127.5,-486.9743 127.5,-478.4166"/>
<polygon fill="#c0c0c0" stroke="#c0c0c0" stroke-width="2" points="131.0001,-478.4132 127.5,-468.4133 124.0001,-478.4133 131.0001,-478.4132"/>
</g>
<!-- 10 -->
<g id="node11" class="node">
<title>10</title>
<path fill="none" stroke="#61d856" stroke-width="2" d="M161.5,-612C161.5,-612 93.5,-612 93.5,-612 87.5,-612 81.5,-606 81.5,-600 81.5,-600 81.5,-588 81.5,-588 81.5,-582 87.5,-576 93.5,-576 93.5,-576 161.5,-576 161.5,-576 167.5,-576 173.5,-582 173.5,-588 173.5,-588 173.5,-600 173.5,-600 173.5,-606 167.5,-612 161.5,-612"/>
<text text-anchor="middle" x="127.5" y="-591.5" font-family="sans" font-size="10.00" fill="#000000">haplotypecaller</text>
</g>
<!-- 10&#45;&gt;9 -->
<g id="edge10" class="edge">
<title>10&#45;&gt;9</title>
<path fill="none" stroke="#c0c0c0" stroke-width="2" d="M127.5,-575.8314C127.5,-568.131 127.5,-558.9743 127.5,-550.4166"/>
<polygon fill="#c0c0c0" stroke="#c0c0c0" stroke-width="2" points="131.0001,-550.4132 127.5,-540.4133 124.0001,-550.4133 131.0001,-550.4132"/>
</g>
<!-- 11 -->
<g id="node12" class="node">
<title>11</title>
<path fill="none" stroke="#56d892" stroke-width="2" d="M152.5,-684C152.5,-684 102.5,-684 102.5,-684 96.5,-684 90.5,-678 90.5,-672 90.5,-672 90.5,-660 90.5,-660 90.5,-654 96.5,-648 102.5,-648 102.5,-648 152.5,-648 152.5,-648 158.5,-648 164.5,-654 164.5,-660 164.5,-660 164.5,-672 164.5,-672 164.5,-678 158.5,-684 152.5,-684"/>
<text text-anchor="middle" x="127.5" y="-663.5" font-family="sans" font-size="10.00" fill="#000000">reorderbam</text>
</g>
<!-- 11&#45;&gt;10 -->
<g id="edge11" class="edge">
<title>11&#45;&gt;10</title>
<path fill="none" stroke="#c0c0c0" stroke-width="2" d="M127.5,-647.8314C127.5,-640.131 127.5,-630.9743 127.5,-622.4166"/>
<polygon fill="#c0c0c0" stroke="#c0c0c0" stroke-width="2" points="131.0001,-622.4132 127.5,-612.4133 124.0001,-622.4133 131.0001,-622.4132"/>
</g>
<!-- 12 -->
<g id="node13" class="node">
<title>12</title>
<path fill="none" stroke="#78d856" stroke-width="2" d="M161.5,-756C161.5,-756 93.5,-756 93.5,-756 87.5,-756 81.5,-750 81.5,-744 81.5,-744 81.5,-732 81.5,-732 81.5,-726 87.5,-720 93.5,-720 93.5,-720 161.5,-720 161.5,-720 167.5,-720 173.5,-726 173.5,-732 173.5,-732 173.5,-744 173.5,-744 173.5,-750 167.5,-756 161.5,-756"/>
<text text-anchor="middle" x="127.5" y="-735.5" font-family="sans" font-size="10.00" fill="#000000">markduplicates</text>
</g>
<!-- 12&#45;&gt;11 -->
<g id="edge12" class="edge">
<title>12&#45;&gt;11</title>
<path fill="none" stroke="#c0c0c0" stroke-width="2" d="M127.5,-719.8314C127.5,-712.131 127.5,-702.9743 127.5,-694.4166"/>
<polygon fill="#c0c0c0" stroke="#c0c0c0" stroke-width="2" points="131.0001,-694.4132 127.5,-684.4133 124.0001,-694.4133 131.0001,-694.4132"/>
</g>
<!-- 13 -->
<g id="node14" class="node">
<title>13</title>
<path fill="none" stroke="#d85656" stroke-width="2" d="M175,-828C175,-828 80,-828 80,-828 74,-828 68,-822 68,-816 68,-816 68,-804 68,-804 68,-798 74,-792 80,-792 80,-792 175,-792 175,-792 181,-792 187,-798 187,-804 187,-804 187,-816 187,-816 187,-822 181,-828 175,-828"/>
<text text-anchor="middle" x="127.5" y="-807.5" font-family="sans" font-size="10.00" fill="#000000">mergebamalignment</text>
</g>
<!-- 13&#45;&gt;12 -->
<g id="edge13" class="edge">
<title>13&#45;&gt;12</title>
<path fill="none" stroke="#c0c0c0" stroke-width="2" d="M127.5,-791.8314C127.5,-784.131 127.5,-774.9743 127.5,-766.4166"/>
<polygon fill="#c0c0c0" stroke="#c0c0c0" stroke-width="2" points="131.0001,-766.4132 127.5,-756.4133 124.0001,-766.4133 131.0001,-766.4132"/>
</g>
<!-- 14 -->
<g id="node15" class="node">
<title>14</title>
<path fill="none" stroke="#56d8a9" stroke-width="2" d="M95.5,-900C95.5,-900 29.5,-900 29.5,-900 23.5,-900 17.5,-894 17.5,-888 17.5,-888 17.5,-876 17.5,-876 17.5,-870 23.5,-864 29.5,-864 29.5,-864 95.5,-864 95.5,-864 101.5,-864 107.5,-870 107.5,-876 107.5,-876 107.5,-888 107.5,-888 107.5,-894 101.5,-900 95.5,-900"/>
<text text-anchor="middle" x="62.5" y="-879.5" font-family="sans" font-size="10.00" fill="#000000">samtools_view</text>
</g>
<!-- 14&#45;&gt;13 -->
<g id="edge14" class="edge">
<title>14&#45;&gt;13</title>
<path fill="none" stroke="#c0c0c0" stroke-width="2" d="M78.9022,-863.8314C86.5415,-855.3694 95.7683,-845.1489 104.1207,-835.8971"/>
<polygon fill="#c0c0c0" stroke="#c0c0c0" stroke-width="2" points="106.7738,-838.1813 110.8769,-828.4133 101.5779,-833.4906 106.7738,-838.1813"/>
</g>
<!-- 15 -->
<g id="node16" class="node">
<title>15</title>
<path fill="none" stroke="#568ad8" stroke-width="2" d="M249,-900C249,-900 138,-900 138,-900 132,-900 126,-894 126,-888 126,-888 126,-876 126,-876 126,-870 132,-864 138,-864 138,-864 249,-864 249,-864 255,-864 261,-870 261,-876 261,-876 261,-888 261,-888 261,-894 255,-900 249,-900"/>
<text text-anchor="middle" x="193.5" y="-879.5" font-family="sans" font-size="10.00" fill="#000000">addorreplacereadgroups</text>
</g>
<!-- 15&#45;&gt;13 -->
<g id="edge15" class="edge">
<title>15&#45;&gt;13</title>
<path fill="none" stroke="#c0c0c0" stroke-width="2" d="M176.8454,-863.8314C169.0886,-855.3694 159.7198,-845.1489 151.239,-835.8971"/>
<polygon fill="#c0c0c0" stroke="#c0c0c0" stroke-width="2" points="153.7162,-833.4198 144.3788,-828.4133 148.5561,-838.1499 153.7162,-833.4198"/>
</g>
<!-- 16 -->
<g id="node17" class="node">
<title>16</title>
<path fill="none" stroke="#d86e56" stroke-width="2" d="M87.5,-972C87.5,-972 37.5,-972 37.5,-972 31.5,-972 25.5,-966 25.5,-960 25.5,-960 25.5,-948 25.5,-948 25.5,-942 31.5,-936 37.5,-936 37.5,-936 87.5,-936 87.5,-936 93.5,-936 99.5,-942 99.5,-948 99.5,-948 99.5,-960 99.5,-960 99.5,-966 93.5,-972 87.5,-972"/>
<text text-anchor="middle" x="62.5" y="-951.5" font-family="sans" font-size="10.00" fill="#000000">bwa_mem2</text>
</g>
<!-- 16&#45;&gt;14 -->
<g id="edge16" class="edge">
<title>16&#45;&gt;14</title>
<path fill="none" stroke="#c0c0c0" stroke-width="2" d="M62.5,-935.8314C62.5,-928.131 62.5,-918.9743 62.5,-910.4166"/>
<polygon fill="#c0c0c0" stroke="#c0c0c0" stroke-width="2" points="66.0001,-910.4132 62.5,-900.4133 59.0001,-910.4133 66.0001,-910.4132"/>
</g>
<!-- 17 -->
<g id="node18" class="node">
<title>17</title>
<path fill="none" stroke="#56d0d8" stroke-width="2" d="M208.5,-972C208.5,-972 178.5,-972 178.5,-972 172.5,-972 166.5,-966 166.5,-960 166.5,-960 166.5,-948 166.5,-948 166.5,-942 172.5,-936 178.5,-936 178.5,-936 208.5,-936 208.5,-936 214.5,-936 220.5,-942 220.5,-948 220.5,-948 220.5,-960 220.5,-960 220.5,-966 214.5,-972 208.5,-972"/>
<text text-anchor="middle" x="193.5" y="-951.5" font-family="sans" font-size="10.00" fill="#000000">ubam</text>
</g>
<!-- 17&#45;&gt;15 -->
<g id="edge17" class="edge">
<title>17&#45;&gt;15</title>
<path fill="none" stroke="#c0c0c0" stroke-width="2" d="M193.5,-935.8314C193.5,-928.131 193.5,-918.9743 193.5,-910.4166"/>
<polygon fill="#c0c0c0" stroke="#c0c0c0" stroke-width="2" points="197.0001,-910.4132 193.5,-900.4133 190.0001,-910.4133 197.0001,-910.4132"/>
</g>
<!-- 18 -->
<g id="node19" class="node">
<title>18</title>
<path fill="none" stroke="#56d863" stroke-width="2" d="M86.5,-1044C86.5,-1044 38.5,-1044 38.5,-1044 32.5,-1044 26.5,-1038 26.5,-1032 26.5,-1032 26.5,-1020 26.5,-1020 26.5,-1014 32.5,-1008 38.5,-1008 38.5,-1008 86.5,-1008 86.5,-1008 92.5,-1008 98.5,-1014 98.5,-1020 98.5,-1020 98.5,-1032 98.5,-1032 98.5,-1038 92.5,-1044 86.5,-1044"/>
<text text-anchor="middle" x="62.5" y="-1023.5" font-family="sans" font-size="10.00" fill="#000000">samtofastq</text>
</g>
<!-- 18&#45;&gt;16 -->
<g id="edge18" class="edge">
<title>18&#45;&gt;16</title>
<path fill="none" stroke="#c0c0c0" stroke-width="2" d="M62.5,-1007.8314C62.5,-1000.131 62.5,-990.9743 62.5,-982.4166"/>
<polygon fill="#c0c0c0" stroke="#c0c0c0" stroke-width="2" points="66.0001,-982.4132 62.5,-972.4133 59.0001,-982.4133 66.0001,-982.4132"/>
</g>
<!-- 19 -->
<g id="node20" class="node">
<title>19</title>
<path fill="none" stroke="#56d87b" stroke-width="2" d="M113,-1116C113,-1116 12,-1116 12,-1116 6,-1116 0,-1110 0,-1104 0,-1104 0,-1092 0,-1092 0,-1086 6,-1080 12,-1080 12,-1080 113,-1080 113,-1080 119,-1080 125,-1086 125,-1092 125,-1092 125,-1104 125,-1104 125,-1110 119,-1116 113,-1116"/>
<text text-anchor="middle" x="62.5" y="-1095.5" font-family="sans" font-size="10.00" fill="#000000">markilluminaadapters</text>
</g>
<!-- 19&#45;&gt;18 -->
<g id="edge19" class="edge">
<title>19&#45;&gt;18</title>
<path fill="none" stroke="#c0c0c0" stroke-width="2" d="M62.5,-1079.8314C62.5,-1072.131 62.5,-1062.9743 62.5,-1054.4166"/>
<polygon fill="#c0c0c0" stroke="#c0c0c0" stroke-width="2" points="66.0001,-1054.4132 62.5,-1044.4133 59.0001,-1054.4133 66.0001,-1054.4132"/>
</g>
<!-- 20 -->
<g id="node21" class="node">
<title>20</title>
<path fill="none" stroke="#97d856" stroke-width="2" d="M84.5,-1188C84.5,-1188 40.5,-1188 40.5,-1188 34.5,-1188 28.5,-1182 28.5,-1176 28.5,-1176 28.5,-1164 28.5,-1164 28.5,-1158 34.5,-1152 40.5,-1152 40.5,-1152 84.5,-1152 84.5,-1152 90.5,-1152 96.5,-1158 96.5,-1164 96.5,-1164 96.5,-1176 96.5,-1176 96.5,-1182 90.5,-1188 84.5,-1188"/>
<text text-anchor="middle" x="62.5" y="-1167.5" font-family="sans" font-size="10.00" fill="#000000">bwa_mem</text>
</g>
<!-- 20&#45;&gt;19 -->
<g id="edge20" class="edge">
<title>20&#45;&gt;19</title>
<path fill="none" stroke="#c0c0c0" stroke-width="2" d="M62.5,-1151.8314C62.5,-1144.131 62.5,-1134.9743 62.5,-1126.4166"/>
<polygon fill="#c0c0c0" stroke="#c0c0c0" stroke-width="2" points="66.0001,-1126.4132 62.5,-1116.4133 59.0001,-1126.4133 66.0001,-1126.4132"/>
</g>
</g>
</svg>
