<?xml version="1.0" encoding="UTF-8" standalone="no"?>
<!DOCTYPE svg PUBLIC "-//W3C//DTD SVG 1.1//EN"
 "http://www.w3.org/Graphics/SVG/1.1/DTD/svg11.dtd">
<!-- Generated by graphviz version 2.40.1 (20161225.0304)
 -->
<!-- Title: snakemake_dag Pages: 1 -->
<svg width="256pt" height="1196pt"
 viewBox="0.00 0.00 256.00 1196.00" xmlns="http://www.w3.org/2000/svg" xmlns:xlink="http://www.w3.org/1999/xlink">
<g id="graph0" class="graph" transform="scale(1 1) rotate(0) translate(4 1192)">
<title>snakemake_dag</title>
<polygon fill="#ffffff" stroke="transparent" points="-4,4 -4,-1192 252,-1192 252,4 -4,4"/>
<!-- 0 -->
<g id="node1" class="node">
<title>0</title>
<path fill="none" stroke="#d86e56" stroke-width="2" d="M179.5,-36C179.5,-36 149.5,-36 149.5,-36 143.5,-36 137.5,-30 137.5,-24 137.5,-24 137.5,-12 137.5,-12 137.5,-6 143.5,0 149.5,0 149.5,0 179.5,0 179.5,0 185.5,0 191.5,-6 191.5,-12 191.5,-12 191.5,-24 191.5,-24 191.5,-30 185.5,-36 179.5,-36"/>
<text text-anchor="middle" x="164.5" y="-15.5" font-family="sans" font-size="10.00" fill="#000000">all</text>
</g>
<!-- 1 -->
<g id="node2" class="node">
<title>1</title>
<path fill="none" stroke="#b6d856" stroke-width="2" d="M142.5,-108C142.5,-108 112.5,-108 112.5,-108 106.5,-108 100.5,-102 100.5,-96 100.5,-96 100.5,-84 100.5,-84 100.5,-78 106.5,-72 112.5,-72 112.5,-72 142.5,-72 142.5,-72 148.5,-72 154.5,-78 154.5,-84 154.5,-84 154.5,-96 154.5,-96 154.5,-102 148.5,-108 142.5,-108"/>
<text text-anchor="middle" x="127.5" y="-87.5" font-family="sans" font-size="10.00" fill="#000000">iqtree</text>
</g>
<!-- 1&#45;&gt;0 -->
<g id="edge2" class="edge">
<title>1&#45;&gt;0</title>
<path fill="none" stroke="#c0c0c0" stroke-width="2" d="M136.8367,-71.8314C140.9243,-63.8771 145.8104,-54.369 150.3309,-45.5723"/>
<polygon fill="#c0c0c0" stroke="#c0c0c0" stroke-width="2" points="153.5799,-46.9074 155.0376,-36.4133 147.3539,-43.7078 153.5799,-46.9074"/>
</g>
<!-- 2 -->
<g id="node3" class="node">
<title>2</title>
<path fill="none" stroke="#d8a456" stroke-width="2" d="M217.5,-108C217.5,-108 187.5,-108 187.5,-108 181.5,-108 175.5,-102 175.5,-96 175.5,-96 175.5,-84 175.5,-84 175.5,-78 181.5,-72 187.5,-72 187.5,-72 217.5,-72 217.5,-72 223.5,-72 229.5,-78 229.5,-84 229.5,-84 229.5,-96 229.5,-96 229.5,-102 223.5,-108 217.5,-108"/>
<text text-anchor="middle" x="202.5" y="-87.5" font-family="sans" font-size="10.00" fill="#000000">multiqc</text>
</g>
<!-- 2&#45;&gt;0 -->
<g id="edge1" class="edge">
<title>2&#45;&gt;0</title>
<path fill="none" stroke="#c0c0c0" stroke-width="2" d="M192.911,-71.8314C188.6683,-63.7925 183.5879,-54.1666 178.904,-45.2918"/>
<polygon fill="#c0c0c0" stroke="#c0c0c0" stroke-width="2" points="181.9811,-43.6235 174.2181,-36.4133 175.7904,-46.8908 181.9811,-43.6235"/>
</g>
<!-- 3 -->
<g id="node4" class="node">
<title>3</title>
<path fill="none" stroke="#68d856" stroke-width="2" d="M147.5,-180C147.5,-180 105.5,-180 105.5,-180 99.5,-180 93.5,-174 93.5,-168 93.5,-168 93.5,-156 93.5,-156 93.5,-150 99.5,-144 105.5,-144 105.5,-144 147.5,-144 147.5,-144 153.5,-144 159.5,-150 159.5,-156 159.5,-156 159.5,-168 159.5,-168 159.5,-174 153.5,-180 147.5,-180"/>
<text text-anchor="middle" x="126.5" y="-159.5" font-family="sans" font-size="10.00" fill="#000000">vcftofasta</text>
</g>
<!-- 3&#45;&gt;1 -->
<g id="edge3" class="edge">
<title>3&#45;&gt;1</title>
<path fill="none" stroke="#c0c0c0" stroke-width="2" d="M126.7523,-143.8314C126.8593,-136.131 126.9865,-126.9743 127.1053,-118.4166"/>
<polygon fill="#c0c0c0" stroke="#c0c0c0" stroke-width="2" points="130.6049,-118.4609 127.2443,-108.4133 123.6056,-118.3637 130.6049,-118.4609"/>
</g>
<!-- 4 -->
<g id="node5" class="node">
<title>4</title>
<path fill="none" stroke="#56d8a9" stroke-width="2" d="M219.5,-180C219.5,-180 189.5,-180 189.5,-180 183.5,-180 177.5,-174 177.5,-168 177.5,-168 177.5,-156 177.5,-156 177.5,-150 183.5,-144 189.5,-144 189.5,-144 219.5,-144 219.5,-144 225.5,-144 231.5,-150 231.5,-156 231.5,-156 231.5,-168 231.5,-168 231.5,-174 225.5,-180 219.5,-180"/>
<text text-anchor="middle" x="204.5" y="-159.5" font-family="sans" font-size="10.00" fill="#000000">fastqc</text>
</g>
<!-- 4&#45;&gt;2 -->
<g id="edge4" class="edge">
<title>4&#45;&gt;2</title>
<path fill="none" stroke="#c0c0c0" stroke-width="2" d="M203.9953,-143.8314C203.7814,-136.131 203.5271,-126.9743 203.2894,-118.4166"/>
<polygon fill="#c0c0c0" stroke="#c0c0c0" stroke-width="2" points="206.7879,-118.3122 203.0115,-108.4133 199.7906,-118.5066 206.7879,-118.3122"/>
</g>
<!-- 5 -->
<g id="node6" class="node">
<title>5</title>
<path fill="none" stroke="#ced856" stroke-width="2" d="M162.5,-252C162.5,-252 90.5,-252 90.5,-252 84.5,-252 78.5,-246 78.5,-240 78.5,-240 78.5,-228 78.5,-228 78.5,-222 84.5,-216 90.5,-216 90.5,-216 162.5,-216 162.5,-216 168.5,-216 174.5,-222 174.5,-228 174.5,-228 174.5,-240 174.5,-240 174.5,-246 168.5,-252 162.5,-252"/>
<text text-anchor="middle" x="126.5" y="-231.5" font-family="sans" font-size="10.00" fill="#000000">costumevcffilter</text>
</g>
<!-- 5&#45;&gt;3 -->
<g id="edge5" class="edge">
<title>5&#45;&gt;3</title>
<path fill="none" stroke="#c0c0c0" stroke-width="2" d="M126.5,-215.8314C126.5,-208.131 126.5,-198.9743 126.5,-190.4166"/>
<polygon fill="#c0c0c0" stroke="#c0c0c0" stroke-width="2" points="130.0001,-190.4132 126.5,-180.4133 123.0001,-190.4133 130.0001,-190.4132"/>
</g>
<!-- 6 -->
<g id="node7" class="node">
<title>6</title>
<path fill="none" stroke="#56d8b9" stroke-width="2" d="M165.5,-324C165.5,-324 87.5,-324 87.5,-324 81.5,-324 75.5,-318 75.5,-312 75.5,-312 75.5,-300 75.5,-300 75.5,-294 81.5,-288 87.5,-288 87.5,-288 165.5,-288 165.5,-288 171.5,-288 177.5,-294 177.5,-300 177.5,-300 177.5,-312 177.5,-312 177.5,-318 171.5,-324 165.5,-324"/>
<text text-anchor="middle" x="126.5" y="-303.5" font-family="sans" font-size="10.00" fill="#000000">makereadablevcf</text>
</g>
<!-- 6&#45;&gt;5 -->
<g id="edge6" class="edge">
<title>6&#45;&gt;5</title>
<path fill="none" stroke="#c0c0c0" stroke-width="2" d="M126.5,-287.8314C126.5,-280.131 126.5,-270.9743 126.5,-262.4166"/>
<polygon fill="#c0c0c0" stroke="#c0c0c0" stroke-width="2" points="130.0001,-262.4132 126.5,-252.4133 123.0001,-262.4133 130.0001,-262.4132"/>
</g>
<!-- 7 -->
<g id="node8" class="node">
<title>7</title>
<path fill="none" stroke="#56d892" stroke-width="2" d="M154.5,-396C154.5,-396 98.5,-396 98.5,-396 92.5,-396 86.5,-390 86.5,-384 86.5,-384 86.5,-372 86.5,-372 86.5,-366 92.5,-360 98.5,-360 98.5,-360 154.5,-360 154.5,-360 160.5,-360 166.5,-366 166.5,-372 166.5,-372 166.5,-384 166.5,-384 166.5,-390 160.5,-396 154.5,-396"/>
<text text-anchor="middle" x="126.5" y="-375.5" font-family="sans" font-size="10.00" fill="#000000">hardfiltration</text>
</g>
<!-- 7&#45;&gt;6 -->
<g id="edge7" class="edge">
<title>7&#45;&gt;6</title>
<path fill="none" stroke="#c0c0c0" stroke-width="2" d="M126.5,-359.8314C126.5,-352.131 126.5,-342.9743 126.5,-334.4166"/>
<polygon fill="#c0c0c0" stroke="#c0c0c0" stroke-width="2" points="130.0001,-334.4132 126.5,-324.4133 123.0001,-334.4133 130.0001,-334.4132"/>
</g>
<!-- 8 -->
<g id="node9" class="node">
<title>8</title>
<path fill="none" stroke="#59d856" stroke-width="2" d="M159,-468C159,-468 94,-468 94,-468 88,-468 82,-462 82,-456 82,-456 82,-444 82,-444 82,-438 88,-432 94,-432 94,-432 159,-432 159,-432 165,-432 171,-438 171,-444 171,-444 171,-456 171,-456 171,-462 165,-468 159,-468"/>
<text text-anchor="middle" x="126.5" y="-447.5" font-family="sans" font-size="10.00" fill="#000000">genotypegvcfs</text>
</g>
<!-- 8&#45;&gt;7 -->
<g id="edge8" class="edge">
<title>8&#45;&gt;7</title>
<path fill="none" stroke="#c0c0c0" stroke-width="2" d="M126.5,-431.8314C126.5,-424.131 126.5,-414.9743 126.5,-406.4166"/>
<polygon fill="#c0c0c0" stroke="#c0c0c0" stroke-width="2" points="130.0001,-406.4132 126.5,-396.4133 123.0001,-406.4133 130.0001,-406.4132"/>
</g>
<!-- 9 -->
<g id="node10" class="node">
<title>9</title>
<path fill="none" stroke="#d89556" stroke-width="2" d="M157,-540C157,-540 96,-540 96,-540 90,-540 84,-534 84,-528 84,-528 84,-516 84,-516 84,-510 90,-504 96,-504 96,-504 157,-504 157,-504 163,-504 169,-510 169,-516 169,-516 169,-528 169,-528 169,-534 163,-540 157,-540"/>
<text text-anchor="middle" x="126.5" y="-519.5" font-family="sans" font-size="10.00" fill="#000000">combinegvcfs</text>
</g>
<!-- 9&#45;&gt;8 -->
<g id="edge9" class="edge">
<title>9&#45;&gt;8</title>
<path fill="none" stroke="#c0c0c0" stroke-width="2" d="M126.5,-503.8314C126.5,-496.131 126.5,-486.9743 126.5,-478.4166"/>
<polygon fill="#c0c0c0" stroke="#c0c0c0" stroke-width="2" points="130.0001,-478.4132 126.5,-468.4133 123.0001,-478.4133 130.0001,-478.4132"/>
</g>
<!-- 10 -->
<g id="node11" class="node">
<title>10</title>
<path fill="none" stroke="#d8bc56" stroke-width="2" d="M160.5,-612C160.5,-612 92.5,-612 92.5,-612 86.5,-612 80.5,-606 80.5,-600 80.5,-600 80.5,-588 80.5,-588 80.5,-582 86.5,-576 92.5,-576 92.5,-576 160.5,-576 160.5,-576 166.5,-576 172.5,-582 172.5,-588 172.5,-588 172.5,-600 172.5,-600 172.5,-606 166.5,-612 160.5,-612"/>
<text text-anchor="middle" x="126.5" y="-591.5" font-family="sans" font-size="10.00" fill="#000000">haplotypecaller</text>
</g>
<!-- 10&#45;&gt;9 -->
<g id="edge10" class="edge">
<title>10&#45;&gt;9</title>
<path fill="none" stroke="#c0c0c0" stroke-width="2" d="M126.5,-575.8314C126.5,-568.131 126.5,-558.9743 126.5,-550.4166"/>
<polygon fill="#c0c0c0" stroke="#c0c0c0" stroke-width="2" points="130.0001,-550.4132 126.5,-540.4133 123.0001,-550.4133 130.0001,-550.4132"/>
</g>
<!-- 11 -->
<g id="node12" class="node">
<title>11</title>
<path fill="none" stroke="#a7d856" stroke-width="2" d="M151.5,-684C151.5,-684 101.5,-684 101.5,-684 95.5,-684 89.5,-678 89.5,-672 89.5,-672 89.5,-660 89.5,-660 89.5,-654 95.5,-648 101.5,-648 101.5,-648 151.5,-648 151.5,-648 157.5,-648 163.5,-654 163.5,-660 163.5,-660 163.5,-672 163.5,-672 163.5,-678 157.5,-684 151.5,-684"/>
<text text-anchor="middle" x="126.5" y="-663.5" font-family="sans" font-size="10.00" fill="#000000">reorderbam</text>
</g>
<!-- 11&#45;&gt;10 -->
<g id="edge11" class="edge">
<title>11&#45;&gt;10</title>
<path fill="none" stroke="#c0c0c0" stroke-width="2" d="M126.5,-647.8314C126.5,-640.131 126.5,-630.9743 126.5,-622.4166"/>
<polygon fill="#c0c0c0" stroke="#c0c0c0" stroke-width="2" points="130.0001,-622.4132 126.5,-612.4133 123.0001,-622.4133 130.0001,-622.4132"/>
</g>
<!-- 12 -->
<g id="node13" class="node">
<title>12</title>
<path fill="none" stroke="#567bd8" stroke-width="2" d="M160.5,-756C160.5,-756 92.5,-756 92.5,-756 86.5,-756 80.5,-750 80.5,-744 80.5,-744 80.5,-732 80.5,-732 80.5,-726 86.5,-720 92.5,-720 92.5,-720 160.5,-720 160.5,-720 166.5,-720 172.5,-726 172.5,-732 172.5,-732 172.5,-744 172.5,-744 172.5,-750 166.5,-756 160.5,-756"/>
<text text-anchor="middle" x="126.5" y="-735.5" font-family="sans" font-size="10.00" fill="#000000">markduplicates</text>
</g>
<!-- 12&#45;&gt;11 -->
<g id="edge12" class="edge">
<title>12&#45;&gt;11</title>
<path fill="none" stroke="#c0c0c0" stroke-width="2" d="M126.5,-719.8314C126.5,-712.131 126.5,-702.9743 126.5,-694.4166"/>
<polygon fill="#c0c0c0" stroke="#c0c0c0" stroke-width="2" points="130.0001,-694.4132 126.5,-684.4133 123.0001,-694.4133 130.0001,-694.4132"/>
</g>
<!-- 13 -->
<g id="node14" class="node">
<title>13</title>
<path fill="none" stroke="#d85656" stroke-width="2" d="M174,-828C174,-828 79,-828 79,-828 73,-828 67,-822 67,-816 67,-816 67,-804 67,-804 67,-798 73,-792 79,-792 79,-792 174,-792 174,-792 180,-792 186,-798 186,-804 186,-804 186,-816 186,-816 186,-822 180,-828 174,-828"/>
<text text-anchor="middle" x="126.5" y="-807.5" font-family="sans" font-size="10.00" fill="#000000">mergebamalignment</text>
</g>
<!-- 13&#45;&gt;12 -->
<g id="edge13" class="edge">
<title>13&#45;&gt;12</title>
<path fill="none" stroke="#c0c0c0" stroke-width="2" d="M126.5,-791.8314C126.5,-784.131 126.5,-774.9743 126.5,-766.4166"/>
<polygon fill="#c0c0c0" stroke="#c0c0c0" stroke-width="2" points="130.0001,-766.4132 126.5,-756.4133 123.0001,-766.4133 130.0001,-766.4132"/>
</g>
<!-- 14 -->
<g id="node15" class="node">
<title>14</title>
<path fill="none" stroke="#d87d56" stroke-width="2" d="M123,-900C123,-900 12,-900 12,-900 6,-900 0,-894 0,-888 0,-888 0,-876 0,-876 0,-870 6,-864 12,-864 12,-864 123,-864 123,-864 129,-864 135,-870 135,-876 135,-876 135,-888 135,-888 135,-894 129,-900 123,-900"/>
<text text-anchor="middle" x="67.5" y="-879.5" font-family="sans" font-size="10.00" fill="#000000">addorreplacereadgroups</text>
</g>
<!-- 14&#45;&gt;13 -->
<g id="edge15" class="edge">
<title>14&#45;&gt;13</title>
<path fill="none" stroke="#c0c0c0" stroke-width="2" d="M82.3882,-863.8314C89.253,-855.454 97.5301,-845.3531 105.0511,-836.1749"/>
<polygon fill="#c0c0c0" stroke="#c0c0c0" stroke-width="2" points="107.7803,-838.3665 111.4114,-828.4133 102.3659,-833.9297 107.7803,-838.3665"/>
</g>
<!-- 15 -->
<g id="node16" class="node">
<title>15</title>
<path fill="none" stroke="#56b9d8" stroke-width="2" d="M206,-900C206,-900 165,-900 165,-900 159,-900 153,-894 153,-888 153,-888 153,-876 153,-876 153,-870 159,-864 165,-864 165,-864 206,-864 206,-864 212,-864 218,-870 218,-876 218,-876 218,-888 218,-888 218,-894 212,-900 206,-900"/>
<text text-anchor="middle" x="185.5" y="-879.5" font-family="sans" font-size="10.00" fill="#000000">sam2bam</text>
</g>
<!-- 15&#45;&gt;13 -->
<g id="edge14" class="edge">
<title>15&#45;&gt;13</title>
<path fill="none" stroke="#c0c0c0" stroke-width="2" d="M170.6118,-863.8314C163.747,-855.454 155.4699,-845.3531 147.9489,-836.1749"/>
<polygon fill="#c0c0c0" stroke="#c0c0c0" stroke-width="2" points="150.6341,-833.9297 141.5886,-828.4133 145.2197,-838.3665 150.6341,-833.9297"/>
</g>
<!-- 16 -->
<g id="node17" class="node">
<title>16</title>
<path fill="none" stroke="#56d87b" stroke-width="2" d="M82.5,-972C82.5,-972 52.5,-972 52.5,-972 46.5,-972 40.5,-966 40.5,-960 40.5,-960 40.5,-948 40.5,-948 40.5,-942 46.5,-936 52.5,-936 52.5,-936 82.5,-936 82.5,-936 88.5,-936 94.5,-942 94.5,-948 94.5,-948 94.5,-960 94.5,-960 94.5,-966 88.5,-972 82.5,-972"/>
<text text-anchor="middle" x="67.5" y="-951.5" font-family="sans" font-size="10.00" fill="#000000">ubam</text>
</g>
<!-- 16&#45;&gt;14 -->
<g id="edge16" class="edge">
<title>16&#45;&gt;14</title>
<path fill="none" stroke="#c0c0c0" stroke-width="2" d="M67.5,-935.8314C67.5,-928.131 67.5,-918.9743 67.5,-910.4166"/>
<polygon fill="#c0c0c0" stroke="#c0c0c0" stroke-width="2" points="71.0001,-910.4132 67.5,-900.4133 64.0001,-910.4133 71.0001,-910.4132"/>
</g>
<!-- 17 -->
<g id="node18" class="node">
<title>17</title>
<path fill="none" stroke="#56d0d8" stroke-width="2" d="M210.5,-972C210.5,-972 160.5,-972 160.5,-972 154.5,-972 148.5,-966 148.5,-960 148.5,-960 148.5,-948 148.5,-948 148.5,-942 154.5,-936 160.5,-936 160.5,-936 210.5,-936 210.5,-936 216.5,-936 222.5,-942 222.5,-948 222.5,-948 222.5,-960 222.5,-960 222.5,-966 216.5,-972 210.5,-972"/>
<text text-anchor="middle" x="185.5" y="-951.5" font-family="sans" font-size="10.00" fill="#000000">bwa_mem2</text>
</g>
<!-- 17&#45;&gt;15 -->
<g id="edge17" class="edge">
<title>17&#45;&gt;15</title>
<path fill="none" stroke="#c0c0c0" stroke-width="2" d="M185.5,-935.8314C185.5,-928.131 185.5,-918.9743 185.5,-910.4166"/>
<polygon fill="#c0c0c0" stroke="#c0c0c0" stroke-width="2" points="189.0001,-910.4132 185.5,-900.4133 182.0001,-910.4133 189.0001,-910.4132"/>
</g>
<!-- 18 -->
<g id="node19" class="node">
<title>18</title>
<path fill="none" stroke="#56d86b" stroke-width="2" d="M209.5,-1044C209.5,-1044 161.5,-1044 161.5,-1044 155.5,-1044 149.5,-1038 149.5,-1032 149.5,-1032 149.5,-1020 149.5,-1020 149.5,-1014 155.5,-1008 161.5,-1008 161.5,-1008 209.5,-1008 209.5,-1008 215.5,-1008 221.5,-1014 221.5,-1020 221.5,-1020 221.5,-1032 221.5,-1032 221.5,-1038 215.5,-1044 209.5,-1044"/>
<text text-anchor="middle" x="185.5" y="-1023.5" font-family="sans" font-size="10.00" fill="#000000">samtofastq</text>
</g>
<!-- 18&#45;&gt;17 -->
<g id="edge18" class="edge">
<title>18&#45;&gt;17</title>
<path fill="none" stroke="#c0c0c0" stroke-width="2" d="M185.5,-1007.8314C185.5,-1000.131 185.5,-990.9743 185.5,-982.4166"/>
<polygon fill="#c0c0c0" stroke="#c0c0c0" stroke-width="2" points="189.0001,-982.4132 185.5,-972.4133 182.0001,-982.4133 189.0001,-982.4132"/>
</g>
<!-- 19 -->
<g id="node20" class="node">
<title>19</title>
<path fill="none" stroke="#80d856" stroke-width="2" d="M236,-1116C236,-1116 135,-1116 135,-1116 129,-1116 123,-1110 123,-1104 123,-1104 123,-1092 123,-1092 123,-1086 129,-1080 135,-1080 135,-1080 236,-1080 236,-1080 242,-1080 248,-1086 248,-1092 248,-1092 248,-1104 248,-1104 248,-1110 242,-1116 236,-1116"/>
<text text-anchor="middle" x="185.5" y="-1095.5" font-family="sans" font-size="10.00" fill="#000000">markilluminaadapters</text>
</g>
<!-- 19&#45;&gt;18 -->
<g id="edge19" class="edge">
<title>19&#45;&gt;18</title>
<path fill="none" stroke="#c0c0c0" stroke-width="2" d="M185.5,-1079.8314C185.5,-1072.131 185.5,-1062.9743 185.5,-1054.4166"/>
<polygon fill="#c0c0c0" stroke="#c0c0c0" stroke-width="2" points="189.0001,-1054.4132 185.5,-1044.4133 182.0001,-1054.4133 189.0001,-1054.4132"/>
</g>
<!-- 20 -->
<g id="node21" class="node">
<title>20</title>
<path fill="none" stroke="#5692d8" stroke-width="2" d="M207.5,-1188C207.5,-1188 163.5,-1188 163.5,-1188 157.5,-1188 151.5,-1182 151.5,-1176 151.5,-1176 151.5,-1164 151.5,-1164 151.5,-1158 157.5,-1152 163.5,-1152 163.5,-1152 207.5,-1152 207.5,-1152 213.5,-1152 219.5,-1158 219.5,-1164 219.5,-1164 219.5,-1176 219.5,-1176 219.5,-1182 213.5,-1188 207.5,-1188"/>
<text text-anchor="middle" x="185.5" y="-1167.5" font-family="sans" font-size="10.00" fill="#000000">bwa_mem</text>
</g>
<!-- 20&#45;&gt;19 -->
<g id="edge20" class="edge">
<title>20&#45;&gt;19</title>
<path fill="none" stroke="#c0c0c0" stroke-width="2" d="M185.5,-1151.8314C185.5,-1144.131 185.5,-1134.9743 185.5,-1126.4166"/>
<polygon fill="#c0c0c0" stroke="#c0c0c0" stroke-width="2" points="189.0001,-1126.4132 185.5,-1116.4133 182.0001,-1126.4133 189.0001,-1126.4132"/>
</g>
</g>
</svg>
